solid OpenSCAD_Model
  facet normal 0.195088 0.980786 -0
    outer loop
      vertex 2.5 1 0
      vertex 1.92597 1.11418 1.5
      vertex 2.5 1 1.5
    endloop
  endfacet
  facet normal 0.195088 0.980786 0
    outer loop
      vertex 1.92597 1.11418 1.5
      vertex 2.5 1 0
      vertex 1.92597 1.11418 0
    endloop
  endfacet
  facet normal -0.831466 0.555575 0
    outer loop
      vertex 3.56066 1.43934 0
      vertex 3.88582 1.92597 1.5
      vertex 3.88582 1.92597 0
    endloop
  endfacet
  facet normal -0.831466 0.555575 0
    outer loop
      vertex 3.88582 1.92597 1.5
      vertex 3.56066 1.43934 0
      vertex 3.56066 1.43934 1.5
    endloop
  endfacet
  facet normal -0.831472 -0.555567 0
    outer loop
      vertex 3.88582 3.07402 0
      vertex 3.56066 3.56066 1.5
      vertex 3.56066 3.56066 0
    endloop
  endfacet
  facet normal -0.831472 -0.555567 0
    outer loop
      vertex 3.56066 3.56066 1.5
      vertex 3.88582 3.07402 0
      vertex 3.88582 3.07402 1.5
    endloop
  endfacet
  facet normal -0.980785 -0.195091 0
    outer loop
      vertex 4 2.5 0
      vertex 3.88582 3.07402 1.5
      vertex 3.88582 3.07402 0
    endloop
  endfacet
  facet normal -0.980785 -0.195091 0
    outer loop
      vertex 3.88582 3.07402 1.5
      vertex 4 2.5 0
      vertex 4 2.5 1.5
    endloop
  endfacet
  facet normal -0.555567 -0.831472 0
    outer loop
      vertex 3.07402 3.88582 0
      vertex 3.56066 3.56066 1.5
      vertex 3.07402 3.88582 1.5
    endloop
  endfacet
  facet normal -0.555567 -0.831472 -0
    outer loop
      vertex 3.56066 3.56066 1.5
      vertex 3.07402 3.88582 0
      vertex 3.56066 3.56066 0
    endloop
  endfacet
  facet normal -0.195091 -0.980785 0
    outer loop
      vertex 2.5 4 0
      vertex 3.07402 3.88582 1.5
      vertex 2.5 4 1.5
    endloop
  endfacet
  facet normal -0.195091 -0.980785 -0
    outer loop
      vertex 3.07402 3.88582 1.5
      vertex 2.5 4 0
      vertex 3.07402 3.88582 0
    endloop
  endfacet
  facet normal 0.980786 0.195088 0
    outer loop
      vertex 1.11418 1.92597 1.5
      vertex 1 2.5 0
      vertex 1 2.5 1.5
    endloop
  endfacet
  facet normal 0.980786 0.195088 0
    outer loop
      vertex 1 2.5 0
      vertex 1.11418 1.92597 1.5
      vertex 1.11418 1.92597 0
    endloop
  endfacet
  facet normal -0.555567 0.831472 0
    outer loop
      vertex 3.56066 1.43934 0
      vertex 3.07402 1.11418 1.5
      vertex 3.56066 1.43934 1.5
    endloop
  endfacet
  facet normal -0.555567 0.831472 0
    outer loop
      vertex 3.07402 1.11418 1.5
      vertex 3.56066 1.43934 0
      vertex 3.07402 1.11418 0
    endloop
  endfacet
  facet normal 0.831472 -0.555567 0
    outer loop
      vertex 1.11418 3.07402 1.5
      vertex 1.43934 3.56066 0
      vertex 1.43934 3.56066 1.5
    endloop
  endfacet
  facet normal 0.831472 -0.555567 0
    outer loop
      vertex 1.43934 3.56066 0
      vertex 1.11418 3.07402 1.5
      vertex 1.11418 3.07402 0
    endloop
  endfacet
  facet normal 0.195088 -0.980786 0
    outer loop
      vertex 1.92597 3.88582 0
      vertex 2.5 4 1.5
      vertex 1.92597 3.88582 1.5
    endloop
  endfacet
  facet normal 0.195088 -0.980786 0
    outer loop
      vertex 2.5 4 1.5
      vertex 1.92597 3.88582 0
      vertex 2.5 4 0
    endloop
  endfacet
  facet normal 0.555575 -0.831466 0
    outer loop
      vertex 1.43934 3.56066 0
      vertex 1.92597 3.88582 1.5
      vertex 1.43934 3.56066 1.5
    endloop
  endfacet
  facet normal 0.555575 -0.831466 0
    outer loop
      vertex 1.92597 3.88582 1.5
      vertex 1.43934 3.56066 0
      vertex 1.92597 3.88582 0
    endloop
  endfacet
  facet normal -0.980786 0.195088 0
    outer loop
      vertex 3.88582 1.92597 0
      vertex 4 2.5 1.5
      vertex 4 2.5 0
    endloop
  endfacet
  facet normal -0.980786 0.195088 0
    outer loop
      vertex 4 2.5 1.5
      vertex 3.88582 1.92597 0
      vertex 3.88582 1.92597 1.5
    endloop
  endfacet
  facet normal 0.980785 -0.195091 0
    outer loop
      vertex 1 2.5 1.5
      vertex 1.11418 3.07402 0
      vertex 1.11418 3.07402 1.5
    endloop
  endfacet
  facet normal 0.980785 -0.195091 0
    outer loop
      vertex 1.11418 3.07402 0
      vertex 1 2.5 1.5
      vertex 1 2.5 0
    endloop
  endfacet
  facet normal 0.831466 0.555575 0
    outer loop
      vertex 1.43934 1.43934 1.5
      vertex 1.11418 1.92597 0
      vertex 1.11418 1.92597 1.5
    endloop
  endfacet
  facet normal 0.831466 0.555575 0
    outer loop
      vertex 1.11418 1.92597 0
      vertex 1.43934 1.43934 1.5
      vertex 1.43934 1.43934 0
    endloop
  endfacet
  facet normal -0.195091 0.980785 0
    outer loop
      vertex 3.07402 1.11418 0
      vertex 2.5 1 1.5
      vertex 3.07402 1.11418 1.5
    endloop
  endfacet
  facet normal -0.195091 0.980785 0
    outer loop
      vertex 2.5 1 1.5
      vertex 3.07402 1.11418 0
      vertex 2.5 1 0
    endloop
  endfacet
  facet normal 0.555575 0.831466 -0
    outer loop
      vertex 1.92597 1.11418 0
      vertex 1.43934 1.43934 1.5
      vertex 1.92597 1.11418 1.5
    endloop
  endfacet
  facet normal 0.555575 0.831466 0
    outer loop
      vertex 1.43934 1.43934 1.5
      vertex 1.92597 1.11418 0
      vertex 1.43934 1.43934 0
    endloop
  endfacet
  facet normal 0.19512 0.980779 -0
    outer loop
      vertex 2.5 56 0
      vertex 1.92597 56.1142 1.5
      vertex 2.5 56 1.5
    endloop
  endfacet
  facet normal 0.19512 0.980779 0
    outer loop
      vertex 1.92597 56.1142 1.5
      vertex 2.5 56 0
      vertex 1.92597 56.1142 0
    endloop
  endfacet
  facet normal -0.831503 0.55552 0
    outer loop
      vertex 3.56066 56.4393 0
      vertex 3.88582 56.926 1.5
      vertex 3.88582 56.926 0
    endloop
  endfacet
  facet normal -0.831503 0.55552 0
    outer loop
      vertex 3.88582 56.926 1.5
      vertex 3.56066 56.4393 0
      vertex 3.56066 56.4393 1.5
    endloop
  endfacet
  facet normal -0.831503 -0.55552 0
    outer loop
      vertex 3.88582 58.074 0
      vertex 3.56066 58.5607 1.5
      vertex 3.56066 58.5607 0
    endloop
  endfacet
  facet normal -0.831503 -0.55552 0
    outer loop
      vertex 3.56066 58.5607 1.5
      vertex 3.88582 58.074 0
      vertex 3.88582 58.074 1.5
    endloop
  endfacet
  facet normal -0.980784 -0.195097 0
    outer loop
      vertex 4 57.5 0
      vertex 3.88582 58.074 1.5
      vertex 3.88582 58.074 0
    endloop
  endfacet
  facet normal -0.980784 -0.195097 0
    outer loop
      vertex 3.88582 58.074 1.5
      vertex 4 57.5 0
      vertex 4 57.5 1.5
    endloop
  endfacet
  facet normal -0.555496 -0.831519 0
    outer loop
      vertex 3.07402 58.8858 0
      vertex 3.56066 58.5607 1.5
      vertex 3.07402 58.8858 1.5
    endloop
  endfacet
  facet normal -0.555496 -0.831519 -0
    outer loop
      vertex 3.56066 58.5607 1.5
      vertex 3.07402 58.8858 0
      vertex 3.56066 58.5607 0
    endloop
  endfacet
  facet normal 0.980784 0.195097 0
    outer loop
      vertex 1.11418 56.926 1.5
      vertex 1 57.5 0
      vertex 1 57.5 1.5
    endloop
  endfacet
  facet normal 0.980784 0.195097 0
    outer loop
      vertex 1 57.5 0
      vertex 1.11418 56.926 1.5
      vertex 1.11418 56.926 0
    endloop
  endfacet
  facet normal -0.555496 0.831519 0
    outer loop
      vertex 3.56066 56.4393 0
      vertex 3.07402 56.1142 1.5
      vertex 3.56066 56.4393 1.5
    endloop
  endfacet
  facet normal -0.555496 0.831519 0
    outer loop
      vertex 3.07402 56.1142 1.5
      vertex 3.56066 56.4393 0
      vertex 3.07402 56.1142 0
    endloop
  endfacet
  facet normal 0.831503 -0.55552 0
    outer loop
      vertex 1.11418 58.074 1.5
      vertex 1.43934 58.5607 0
      vertex 1.43934 58.5607 1.5
    endloop
  endfacet
  facet normal 0.831503 -0.55552 0
    outer loop
      vertex 1.43934 58.5607 0
      vertex 1.11418 58.074 1.5
      vertex 1.11418 58.074 0
    endloop
  endfacet
  facet normal 0.19512 -0.980779 0
    outer loop
      vertex 1.92597 58.8858 0
      vertex 2.5 59 1.5
      vertex 1.92597 58.8858 1.5
    endloop
  endfacet
  facet normal 0.19512 -0.980779 0
    outer loop
      vertex 2.5 59 1.5
      vertex 1.92597 58.8858 0
      vertex 2.5 59 0
    endloop
  endfacet
  facet normal 0.555504 -0.831514 0
    outer loop
      vertex 1.43934 58.5607 0
      vertex 1.92597 58.8858 1.5
      vertex 1.43934 58.5607 1.5
    endloop
  endfacet
  facet normal 0.555504 -0.831514 0
    outer loop
      vertex 1.92597 58.8858 1.5
      vertex 1.43934 58.5607 0
      vertex 1.92597 58.8858 0
    endloop
  endfacet
  facet normal -0.980784 0.195097 0
    outer loop
      vertex 3.88582 56.926 0
      vertex 4 57.5 1.5
      vertex 4 57.5 0
    endloop
  endfacet
  facet normal -0.980784 0.195097 0
    outer loop
      vertex 4 57.5 1.5
      vertex 3.88582 56.926 0
      vertex 3.88582 56.926 1.5
    endloop
  endfacet
  facet normal 0.980784 -0.195097 0
    outer loop
      vertex 1 57.5 1.5
      vertex 1.11418 58.074 0
      vertex 1.11418 58.074 1.5
    endloop
  endfacet
  facet normal 0.980784 -0.195097 0
    outer loop
      vertex 1.11418 58.074 0
      vertex 1 57.5 1.5
      vertex 1 57.5 0
    endloop
  endfacet
  facet normal 0.831503 0.55552 0
    outer loop
      vertex 1.43934 56.4393 1.5
      vertex 1.11418 56.926 0
      vertex 1.11418 56.926 1.5
    endloop
  endfacet
  facet normal 0.831503 0.55552 0
    outer loop
      vertex 1.11418 56.926 0
      vertex 1.43934 56.4393 1.5
      vertex 1.43934 56.4393 0
    endloop
  endfacet
  facet normal -0.195124 -0.980779 0
    outer loop
      vertex 2.5 59 0
      vertex 3.07402 58.8858 1.5
      vertex 2.5 59 1.5
    endloop
  endfacet
  facet normal -0.195124 -0.980779 -0
    outer loop
      vertex 3.07402 58.8858 1.5
      vertex 2.5 59 0
      vertex 3.07402 58.8858 0
    endloop
  endfacet
  facet normal -0.195124 0.980779 0
    outer loop
      vertex 3.07402 56.1142 0
      vertex 2.5 56 1.5
      vertex 3.07402 56.1142 1.5
    endloop
  endfacet
  facet normal -0.195124 0.980779 0
    outer loop
      vertex 2.5 56 1.5
      vertex 3.07402 56.1142 0
      vertex 2.5 56 0
    endloop
  endfacet
  facet normal 0.555504 0.831514 -0
    outer loop
      vertex 1.92597 56.1142 0
      vertex 1.43934 56.4393 1.5
      vertex 1.92597 56.1142 1.5
    endloop
  endfacet
  facet normal 0.555504 0.831514 0
    outer loop
      vertex 1.43934 56.4393 1.5
      vertex 1.92597 56.1142 0
      vertex 1.43934 56.4393 0
    endloop
  endfacet
  facet normal 0.195097 0.980784 -0
    outer loop
      vertex 95.5 1 0
      vertex 94.926 1.11418 1.5
      vertex 95.5 1 1.5
    endloop
  endfacet
  facet normal 0.195097 0.980784 0
    outer loop
      vertex 94.926 1.11418 1.5
      vertex 95.5 1 0
      vertex 94.926 1.11418 0
    endloop
  endfacet
  facet normal -0.831514 0.555504 0
    outer loop
      vertex 96.5607 1.43934 0
      vertex 96.8858 1.92597 1.5
      vertex 96.8858 1.92597 0
    endloop
  endfacet
  facet normal -0.831514 0.555504 0
    outer loop
      vertex 96.8858 1.92597 1.5
      vertex 96.5607 1.43934 0
      vertex 96.5607 1.43934 1.5
    endloop
  endfacet
  facet normal -0.831519 -0.555496 0
    outer loop
      vertex 96.8858 3.07402 0
      vertex 96.5607 3.56066 1.5
      vertex 96.5607 3.56066 0
    endloop
  endfacet
  facet normal -0.831519 -0.555496 0
    outer loop
      vertex 96.5607 3.56066 1.5
      vertex 96.8858 3.07402 0
      vertex 96.8858 3.07402 1.5
    endloop
  endfacet
  facet normal -0.980779 -0.195124 0
    outer loop
      vertex 97 2.5 0
      vertex 96.8858 3.07402 1.5
      vertex 96.8858 3.07402 0
    endloop
  endfacet
  facet normal -0.980779 -0.195124 0
    outer loop
      vertex 96.8858 3.07402 1.5
      vertex 97 2.5 0
      vertex 97 2.5 1.5
    endloop
  endfacet
  facet normal -0.55552 -0.831503 0
    outer loop
      vertex 96.074 3.88582 0
      vertex 96.5607 3.56066 1.5
      vertex 96.074 3.88582 1.5
    endloop
  endfacet
  facet normal -0.55552 -0.831503 -0
    outer loop
      vertex 96.5607 3.56066 1.5
      vertex 96.074 3.88582 0
      vertex 96.5607 3.56066 0
    endloop
  endfacet
  facet normal 0.980779 0.19512 0
    outer loop
      vertex 94.1142 1.92597 1.5
      vertex 94 2.5 0
      vertex 94 2.5 1.5
    endloop
  endfacet
  facet normal 0.980779 0.19512 0
    outer loop
      vertex 94 2.5 0
      vertex 94.1142 1.92597 1.5
      vertex 94.1142 1.92597 0
    endloop
  endfacet
  facet normal -0.55552 0.831503 0
    outer loop
      vertex 96.5607 1.43934 0
      vertex 96.074 1.11418 1.5
      vertex 96.5607 1.43934 1.5
    endloop
  endfacet
  facet normal -0.55552 0.831503 0
    outer loop
      vertex 96.074 1.11418 1.5
      vertex 96.5607 1.43934 0
      vertex 96.074 1.11418 0
    endloop
  endfacet
  facet normal 0.831519 -0.555496 0
    outer loop
      vertex 94.1142 3.07402 1.5
      vertex 94.4393 3.56066 0
      vertex 94.4393 3.56066 1.5
    endloop
  endfacet
  facet normal 0.831519 -0.555496 0
    outer loop
      vertex 94.4393 3.56066 0
      vertex 94.1142 3.07402 1.5
      vertex 94.1142 3.07402 0
    endloop
  endfacet
  facet normal -0.195097 0.980784 0
    outer loop
      vertex 96.074 1.11418 0
      vertex 95.5 1 1.5
      vertex 96.074 1.11418 1.5
    endloop
  endfacet
  facet normal -0.195097 0.980784 0
    outer loop
      vertex 95.5 1 1.5
      vertex 96.074 1.11418 0
      vertex 95.5 1 0
    endloop
  endfacet
  facet normal 0.195097 -0.980784 0
    outer loop
      vertex 94.926 3.88582 0
      vertex 95.5 4 1.5
      vertex 94.926 3.88582 1.5
    endloop
  endfacet
  facet normal 0.195097 -0.980784 0
    outer loop
      vertex 95.5 4 1.5
      vertex 94.926 3.88582 0
      vertex 95.5 4 0
    endloop
  endfacet
  facet normal 0.55552 -0.831503 0
    outer loop
      vertex 94.4393 3.56066 0
      vertex 94.926 3.88582 1.5
      vertex 94.4393 3.56066 1.5
    endloop
  endfacet
  facet normal 0.55552 -0.831503 0
    outer loop
      vertex 94.926 3.88582 1.5
      vertex 94.4393 3.56066 0
      vertex 94.926 3.88582 0
    endloop
  endfacet
  facet normal -0.980779 0.19512 0
    outer loop
      vertex 96.8858 1.92597 0
      vertex 97 2.5 1.5
      vertex 97 2.5 0
    endloop
  endfacet
  facet normal -0.980779 0.19512 0
    outer loop
      vertex 97 2.5 1.5
      vertex 96.8858 1.92597 0
      vertex 96.8858 1.92597 1.5
    endloop
  endfacet
  facet normal 0.980779 -0.195124 0
    outer loop
      vertex 94 2.5 1.5
      vertex 94.1142 3.07402 0
      vertex 94.1142 3.07402 1.5
    endloop
  endfacet
  facet normal 0.980779 -0.195124 0
    outer loop
      vertex 94.1142 3.07402 0
      vertex 94 2.5 1.5
      vertex 94 2.5 0
    endloop
  endfacet
  facet normal 0.831514 0.555504 0
    outer loop
      vertex 94.4393 1.43934 1.5
      vertex 94.1142 1.92597 0
      vertex 94.1142 1.92597 1.5
    endloop
  endfacet
  facet normal 0.831514 0.555504 0
    outer loop
      vertex 94.1142 1.92597 0
      vertex 94.4393 1.43934 1.5
      vertex 94.4393 1.43934 0
    endloop
  endfacet
  facet normal -0.195097 -0.980784 0
    outer loop
      vertex 95.5 4 0
      vertex 96.074 3.88582 1.5
      vertex 95.5 4 1.5
    endloop
  endfacet
  facet normal -0.195097 -0.980784 -0
    outer loop
      vertex 96.074 3.88582 1.5
      vertex 95.5 4 0
      vertex 96.074 3.88582 0
    endloop
  endfacet
  facet normal 0.55552 0.831503 -0
    outer loop
      vertex 94.926 1.11418 0
      vertex 94.4393 1.43934 1.5
      vertex 94.926 1.11418 1.5
    endloop
  endfacet
  facet normal 0.55552 0.831503 0
    outer loop
      vertex 94.4393 1.43934 1.5
      vertex 94.926 1.11418 0
      vertex 94.4393 1.43934 0
    endloop
  endfacet
  facet normal 0.19513 0.980777 -0
    outer loop
      vertex 95.5 56 0
      vertex 94.926 56.1142 1.5
      vertex 95.5 56 1.5
    endloop
  endfacet
  facet normal 0.19513 0.980777 0
    outer loop
      vertex 94.926 56.1142 1.5
      vertex 95.5 56 0
      vertex 94.926 56.1142 0
    endloop
  endfacet
  facet normal -0.831551 0.555449 0
    outer loop
      vertex 96.5607 56.4393 0
      vertex 96.8858 56.926 1.5
      vertex 96.8858 56.926 0
    endloop
  endfacet
  facet normal -0.831551 0.555449 0
    outer loop
      vertex 96.8858 56.926 1.5
      vertex 96.5607 56.4393 0
      vertex 96.5607 56.4393 1.5
    endloop
  endfacet
  facet normal -0.831551 -0.555449 0
    outer loop
      vertex 96.8858 58.074 0
      vertex 96.5607 58.5607 1.5
      vertex 96.5607 58.5607 0
    endloop
  endfacet
  facet normal -0.831551 -0.555449 0
    outer loop
      vertex 96.5607 58.5607 1.5
      vertex 96.8858 58.074 0
      vertex 96.8858 58.074 1.5
    endloop
  endfacet
  facet normal -0.980777 -0.19513 0
    outer loop
      vertex 97 57.5 0
      vertex 96.8858 58.074 1.5
      vertex 96.8858 58.074 0
    endloop
  endfacet
  facet normal -0.980777 -0.19513 0
    outer loop
      vertex 96.8858 58.074 1.5
      vertex 97 57.5 0
      vertex 97 57.5 1.5
    endloop
  endfacet
  facet normal -0.555449 -0.831551 0
    outer loop
      vertex 96.074 58.8858 0
      vertex 96.5607 58.5607 1.5
      vertex 96.074 58.8858 1.5
    endloop
  endfacet
  facet normal -0.555449 -0.831551 -0
    outer loop
      vertex 96.5607 58.5607 1.5
      vertex 96.074 58.8858 0
      vertex 96.5607 58.5607 0
    endloop
  endfacet
  facet normal -0.19513 -0.980777 0
    outer loop
      vertex 95.5 59 0
      vertex 96.074 58.8858 1.5
      vertex 95.5 59 1.5
    endloop
  endfacet
  facet normal -0.19513 -0.980777 -0
    outer loop
      vertex 96.074 58.8858 1.5
      vertex 95.5 59 0
      vertex 96.074 58.8858 0
    endloop
  endfacet
  facet normal 0.980777 0.19513 0
    outer loop
      vertex 94.1142 56.926 1.5
      vertex 94 57.5 0
      vertex 94 57.5 1.5
    endloop
  endfacet
  facet normal 0.980777 0.19513 0
    outer loop
      vertex 94 57.5 0
      vertex 94.1142 56.926 1.5
      vertex 94.1142 56.926 0
    endloop
  endfacet
  facet normal -0.555449 0.831551 0
    outer loop
      vertex 96.5607 56.4393 0
      vertex 96.074 56.1142 1.5
      vertex 96.5607 56.4393 1.5
    endloop
  endfacet
  facet normal -0.555449 0.831551 0
    outer loop
      vertex 96.074 56.1142 1.5
      vertex 96.5607 56.4393 0
      vertex 96.074 56.1142 0
    endloop
  endfacet
  facet normal 0.831551 -0.555449 0
    outer loop
      vertex 94.1142 58.074 1.5
      vertex 94.4393 58.5607 0
      vertex 94.4393 58.5607 1.5
    endloop
  endfacet
  facet normal 0.831551 -0.555449 0
    outer loop
      vertex 94.4393 58.5607 0
      vertex 94.1142 58.074 1.5
      vertex 94.1142 58.074 0
    endloop
  endfacet
  facet normal 0.19513 -0.980777 0
    outer loop
      vertex 94.926 58.8858 0
      vertex 95.5 59 1.5
      vertex 94.926 58.8858 1.5
    endloop
  endfacet
  facet normal 0.19513 -0.980777 0
    outer loop
      vertex 95.5 59 1.5
      vertex 94.926 58.8858 0
      vertex 95.5 59 0
    endloop
  endfacet
  facet normal 0.555449 -0.831551 0
    outer loop
      vertex 94.4393 58.5607 0
      vertex 94.926 58.8858 1.5
      vertex 94.4393 58.5607 1.5
    endloop
  endfacet
  facet normal 0.555449 -0.831551 0
    outer loop
      vertex 94.926 58.8858 1.5
      vertex 94.4393 58.5607 0
      vertex 94.926 58.8858 0
    endloop
  endfacet
  facet normal -0.980777 0.19513 0
    outer loop
      vertex 96.8858 56.926 0
      vertex 97 57.5 1.5
      vertex 97 57.5 0
    endloop
  endfacet
  facet normal -0.980777 0.19513 0
    outer loop
      vertex 97 57.5 1.5
      vertex 96.8858 56.926 0
      vertex 96.8858 56.926 1.5
    endloop
  endfacet
  facet normal 0.980777 -0.19513 0
    outer loop
      vertex 94 57.5 1.5
      vertex 94.1142 58.074 0
      vertex 94.1142 58.074 1.5
    endloop
  endfacet
  facet normal 0.980777 -0.19513 0
    outer loop
      vertex 94.1142 58.074 0
      vertex 94 57.5 1.5
      vertex 94 57.5 0
    endloop
  endfacet
  facet normal 0.831551 0.555449 0
    outer loop
      vertex 94.4393 56.4393 1.5
      vertex 94.1142 56.926 0
      vertex 94.1142 56.926 1.5
    endloop
  endfacet
  facet normal 0.831551 0.555449 0
    outer loop
      vertex 94.1142 56.926 0
      vertex 94.4393 56.4393 1.5
      vertex 94.4393 56.4393 0
    endloop
  endfacet
  facet normal -0.19513 0.980777 0
    outer loop
      vertex 96.074 56.1142 0
      vertex 95.5 56 1.5
      vertex 96.074 56.1142 1.5
    endloop
  endfacet
  facet normal -0.19513 0.980777 0
    outer loop
      vertex 95.5 56 1.5
      vertex 96.074 56.1142 0
      vertex 95.5 56 0
    endloop
  endfacet
  facet normal 0.555449 0.831551 -0
    outer loop
      vertex 94.926 56.1142 0
      vertex 94.4393 56.4393 1.5
      vertex 94.926 56.1142 1.5
    endloop
  endfacet
  facet normal 0.555449 0.831551 0
    outer loop
      vertex 94.4393 56.4393 1.5
      vertex 94.926 56.1142 0
      vertex 94.4393 56.4393 0
    endloop
  endfacet
  facet normal 1 0 0
    outer loop
      vertex 98 50 11.5
      vertex 98 10 11.5
      vertex 98 50 1.5
    endloop
  endfacet
  facet normal 1 -0 0
    outer loop
      vertex 98 50 1.5
      vertex 98 60 0
      vertex 98 60 1.5
    endloop
  endfacet
  facet normal 1 0 0
    outer loop
      vertex 98 10 1.5
      vertex 98 50 1.5
      vertex 98 10 11.5
    endloop
  endfacet
  facet normal 1 -0 0
    outer loop
      vertex 98 10 1.5
      vertex 98 60 0
      vertex 98 50 1.5
    endloop
  endfacet
  facet normal 1 0 0
    outer loop
      vertex 98 0 0
      vertex 98 10 1.5
      vertex 98 0 1.5
    endloop
  endfacet
  facet normal 1 0 0
    outer loop
      vertex 98 10 1.5
      vertex 98 0 0
      vertex 98 60 0
    endloop
  endfacet
  facet normal 0 0 1
    outer loop
      vertex 96.8858 56.926 1.5
      vertex 98 60 1.5
      vertex 97 57.5 1.5
    endloop
  endfacet
  facet normal 0 0 1
    outer loop
      vertex 98 60 1.5
      vertex 96.8858 58.074 1.5
      vertex 97 57.5 1.5
    endloop
  endfacet
  facet normal 0 0 1
    outer loop
      vertex 98 60 1.5
      vertex 96.5607 58.5607 1.5
      vertex 96.8858 58.074 1.5
    endloop
  endfacet
  facet normal 0 0 1
    outer loop
      vertex 98 60 1.5
      vertex 96.074 58.8858 1.5
      vertex 96.5607 58.5607 1.5
    endloop
  endfacet
  facet normal 0 0 1
    outer loop
      vertex 98 60 1.5
      vertex 95.5 59 1.5
      vertex 96.074 58.8858 1.5
    endloop
  endfacet
  facet normal 0 0 1
    outer loop
      vertex 98 60 1.5
      vertex 94.926 58.8858 1.5
      vertex 95.5 59 1.5
    endloop
  endfacet
  facet normal 0 0 1
    outer loop
      vertex 94.1142 58.074 1.5
      vertex 4 57.5 1.5
      vertex 94 57.5 1.5
    endloop
  endfacet
  facet normal 0 0 1
    outer loop
      vertex 3.88582 58.074 1.5
      vertex 94.1142 58.074 1.5
      vertex 94.4393 58.5607 1.5
    endloop
  endfacet
  facet normal 0 0 1
    outer loop
      vertex 3.56066 58.5607 1.5
      vertex 94.4393 58.5607 1.5
      vertex 94.926 58.8858 1.5
    endloop
  endfacet
  facet normal 0 0 1
    outer loop
      vertex 3.07402 58.8858 1.5
      vertex 94.926 58.8858 1.5
      vertex 98 60 1.5
    endloop
  endfacet
  facet normal 0 0 1
    outer loop
      vertex 94.1142 58.074 1.5
      vertex 3.88582 58.074 1.5
      vertex 4 57.5 1.5
    endloop
  endfacet
  facet normal 0 0 1
    outer loop
      vertex 94.4393 58.5607 1.5
      vertex 3.56066 58.5607 1.5
      vertex 3.88582 58.074 1.5
    endloop
  endfacet
  facet normal 0 0 1
    outer loop
      vertex 94.926 58.8858 1.5
      vertex 3.07402 58.8858 1.5
      vertex 3.56066 58.5607 1.5
    endloop
  endfacet
  facet normal -0 0 1
    outer loop
      vertex 0 60 1.5
      vertex 3.07402 58.8858 1.5
      vertex 98 60 1.5
    endloop
  endfacet
  facet normal 0 0 1
    outer loop
      vertex 1.11418 58.074 1.5
      vertex 0 60 1.5
      vertex 1 57.5 1.5
    endloop
  endfacet
  facet normal 0 0 1
    outer loop
      vertex 1.43934 58.5607 1.5
      vertex 0 60 1.5
      vertex 1.11418 58.074 1.5
    endloop
  endfacet
  facet normal 0 0 1
    outer loop
      vertex 1.92597 58.8858 1.5
      vertex 0 60 1.5
      vertex 1.43934 58.5607 1.5
    endloop
  endfacet
  facet normal 0 0 1
    outer loop
      vertex 2.5 59 1.5
      vertex 0 60 1.5
      vertex 1.92597 58.8858 1.5
    endloop
  endfacet
  facet normal 0 0 1
    outer loop
      vertex 3.07402 58.8858 1.5
      vertex 0 60 1.5
      vertex 2.5 59 1.5
    endloop
  endfacet
  facet normal 0 0 1
    outer loop
      vertex 98 60 1.5
      vertex 96.8858 56.926 1.5
      vertex 98 50 1.5
    endloop
  endfacet
  facet normal -0 0 1
    outer loop
      vertex 96.5607 56.4393 1.5
      vertex 98 50 1.5
      vertex 96.8858 56.926 1.5
    endloop
  endfacet
  facet normal -0 0 1
    outer loop
      vertex 96.074 56.1142 1.5
      vertex 98 50 1.5
      vertex 96.5607 56.4393 1.5
    endloop
  endfacet
  facet normal -0 0 1
    outer loop
      vertex 95.5 56 1.5
      vertex 98 50 1.5
      vertex 96.074 56.1142 1.5
    endloop
  endfacet
  facet normal 0 0 1
    outer loop
      vertex 94.926 56.1142 1.5
      vertex 98 50 1.5
      vertex 95.5 56 1.5
    endloop
  endfacet
  facet normal 0 0 1
    outer loop
      vertex 94.4393 56.4393 1.5
      vertex 98 50 1.5
      vertex 94.926 56.1142 1.5
    endloop
  endfacet
  facet normal 0 0 1
    outer loop
      vertex 94.1142 56.926 1.5
      vertex 98 50 1.5
      vertex 94.4393 56.4393 1.5
    endloop
  endfacet
  facet normal -0 0 1
    outer loop
      vertex 4 57.5 1.5
      vertex 94.1142 56.926 1.5
      vertex 94 57.5 1.5
    endloop
  endfacet
  facet normal 0 0 1
    outer loop
      vertex 3.88582 56.926 1.5
      vertex 94.1142 56.926 1.5
      vertex 4 57.5 1.5
    endloop
  endfacet
  facet normal 0 0 1
    outer loop
      vertex 94.1142 56.926 1.5
      vertex 3.88582 56.926 1.5
      vertex 98 50 1.5
    endloop
  endfacet
  facet normal 0 0 1
    outer loop
      vertex 0 50 1.5
      vertex 3.88582 56.926 1.5
      vertex 3.56066 56.4393 1.5
    endloop
  endfacet
  facet normal 0 0 1
    outer loop
      vertex 0 50 1.5
      vertex 3.56066 56.4393 1.5
      vertex 3.07402 56.1142 1.5
    endloop
  endfacet
  facet normal 0 0 1
    outer loop
      vertex 0 50 1.5
      vertex 3.07402 56.1142 1.5
      vertex 2.5 56 1.5
    endloop
  endfacet
  facet normal 0 0 1
    outer loop
      vertex 0 60 1.5
      vertex 1.11418 56.926 1.5
      vertex 1 57.5 1.5
    endloop
  endfacet
  facet normal 0 0 1
    outer loop
      vertex 3.88582 56.926 1.5
      vertex 0 50 1.5
      vertex 98 50 1.5
    endloop
  endfacet
  facet normal 0 0 1
    outer loop
      vertex 1.92597 56.1142 1.5
      vertex 0 50 1.5
      vertex 2.5 56 1.5
    endloop
  endfacet
  facet normal 0 0 1
    outer loop
      vertex 1.43934 56.4393 1.5
      vertex 0 50 1.5
      vertex 1.92597 56.1142 1.5
    endloop
  endfacet
  facet normal 0 0 1
    outer loop
      vertex 1.11418 56.926 1.5
      vertex 0 50 1.5
      vertex 1.43934 56.4393 1.5
    endloop
  endfacet
  facet normal 0 0 1
    outer loop
      vertex 0 50 1.5
      vertex 1.11418 56.926 1.5
      vertex 0 60 1.5
    endloop
  endfacet
  facet normal -0 0 1
    outer loop
      vertex 96.8858 3.07402 1.5
      vertex 98 0 1.5
      vertex 98 10 1.5
    endloop
  endfacet
  facet normal 0 0 1
    outer loop
      vertex 98 0 1.5
      vertex 96.8858 3.07402 1.5
      vertex 97 2.5 1.5
    endloop
  endfacet
  facet normal 0 0 1
    outer loop
      vertex 98 10 1.5
      vertex 96.5607 3.56066 1.5
      vertex 96.8858 3.07402 1.5
    endloop
  endfacet
  facet normal 0 0 1
    outer loop
      vertex 98 10 1.5
      vertex 96.074 3.88582 1.5
      vertex 96.5607 3.56066 1.5
    endloop
  endfacet
  facet normal 0 0 1
    outer loop
      vertex 98 10 1.5
      vertex 95.5 4 1.5
      vertex 96.074 3.88582 1.5
    endloop
  endfacet
  facet normal 0 0 1
    outer loop
      vertex 98 10 1.5
      vertex 94.926 3.88582 1.5
      vertex 95.5 4 1.5
    endloop
  endfacet
  facet normal 0 0 1
    outer loop
      vertex 98 10 1.5
      vertex 94.4393 3.56066 1.5
      vertex 94.926 3.88582 1.5
    endloop
  endfacet
  facet normal 0 0 1
    outer loop
      vertex 98 10 1.5
      vertex 94.1142 3.07402 1.5
      vertex 94.4393 3.56066 1.5
    endloop
  endfacet
  facet normal 0 0 1
    outer loop
      vertex 94.1142 3.07402 1.5
      vertex 4 2.5 1.5
      vertex 94 2.5 1.5
    endloop
  endfacet
  facet normal 0 0 1
    outer loop
      vertex 3.88582 3.07402 1.5
      vertex 94.1142 3.07402 1.5
      vertex 98 10 1.5
    endloop
  endfacet
  facet normal 0 0 1
    outer loop
      vertex 94.1142 3.07402 1.5
      vertex 3.88582 3.07402 1.5
      vertex 4 2.5 1.5
    endloop
  endfacet
  facet normal -0 0 1
    outer loop
      vertex 0 10 1.5
      vertex 3.88582 3.07402 1.5
      vertex 98 10 1.5
    endloop
  endfacet
  facet normal 0 0 1
    outer loop
      vertex 3.88582 3.07402 1.5
      vertex 0 10 1.5
      vertex 3.56066 3.56066 1.5
    endloop
  endfacet
  facet normal 0 0 1
    outer loop
      vertex 3.56066 3.56066 1.5
      vertex 0 10 1.5
      vertex 3.07402 3.88582 1.5
    endloop
  endfacet
  facet normal 0 0 1
    outer loop
      vertex 0 0 1.5
      vertex 1.11418 3.07402 1.5
      vertex 0 10 1.5
    endloop
  endfacet
  facet normal 0 0 1
    outer loop
      vertex 1.43934 3.56066 1.5
      vertex 0 10 1.5
      vertex 1.11418 3.07402 1.5
    endloop
  endfacet
  facet normal 0 0 1
    outer loop
      vertex 1.92597 3.88582 1.5
      vertex 0 10 1.5
      vertex 1.43934 3.56066 1.5
    endloop
  endfacet
  facet normal 0 0 1
    outer loop
      vertex 2.5 4 1.5
      vertex 0 10 1.5
      vertex 1.92597 3.88582 1.5
    endloop
  endfacet
  facet normal 0 0 1
    outer loop
      vertex 3.07402 3.88582 1.5
      vertex 0 10 1.5
      vertex 2.5 4 1.5
    endloop
  endfacet
  facet normal -0 0 1
    outer loop
      vertex 96.8858 1.92597 1.5
      vertex 98 0 1.5
      vertex 97 2.5 1.5
    endloop
  endfacet
  facet normal -0 0 1
    outer loop
      vertex 96.5607 1.43934 1.5
      vertex 98 0 1.5
      vertex 96.8858 1.92597 1.5
    endloop
  endfacet
  facet normal -0 0 1
    outer loop
      vertex 96.074 1.11418 1.5
      vertex 98 0 1.5
      vertex 96.5607 1.43934 1.5
    endloop
  endfacet
  facet normal -0 0 1
    outer loop
      vertex 95.5 1 1.5
      vertex 98 0 1.5
      vertex 96.074 1.11418 1.5
    endloop
  endfacet
  facet normal 0 0 1
    outer loop
      vertex 94.926 1.11418 1.5
      vertex 98 0 1.5
      vertex 95.5 1 1.5
    endloop
  endfacet
  facet normal -0 0 1
    outer loop
      vertex 4 2.5 1.5
      vertex 94.1142 1.92597 1.5
      vertex 94 2.5 1.5
    endloop
  endfacet
  facet normal 0 0 1
    outer loop
      vertex 3.88582 1.92597 1.5
      vertex 94.1142 1.92597 1.5
      vertex 4 2.5 1.5
    endloop
  endfacet
  facet normal 0 0 1
    outer loop
      vertex 94.1142 1.92597 1.5
      vertex 3.88582 1.92597 1.5
      vertex 94.4393 1.43934 1.5
    endloop
  endfacet
  facet normal 0 0 1
    outer loop
      vertex 3.56066 1.43934 1.5
      vertex 94.4393 1.43934 1.5
      vertex 3.88582 1.92597 1.5
    endloop
  endfacet
  facet normal 0 0 1
    outer loop
      vertex 94.4393 1.43934 1.5
      vertex 3.56066 1.43934 1.5
      vertex 94.926 1.11418 1.5
    endloop
  endfacet
  facet normal 0 0 1
    outer loop
      vertex 3.07402 1.11418 1.5
      vertex 94.926 1.11418 1.5
      vertex 3.56066 1.43934 1.5
    endloop
  endfacet
  facet normal 0 0 1
    outer loop
      vertex 94.926 1.11418 1.5
      vertex 3.07402 1.11418 1.5
      vertex 98 0 1.5
    endloop
  endfacet
  facet normal 0 0 1
    outer loop
      vertex 0 0 1.5
      vertex 3.07402 1.11418 1.5
      vertex 2.5 1 1.5
    endloop
  endfacet
  facet normal 0 0 1
    outer loop
      vertex 3.07402 1.11418 1.5
      vertex 0 0 1.5
      vertex 98 0 1.5
    endloop
  endfacet
  facet normal 0 0 1
    outer loop
      vertex 1.92597 1.11418 1.5
      vertex 0 0 1.5
      vertex 2.5 1 1.5
    endloop
  endfacet
  facet normal 0 0 1
    outer loop
      vertex 1.43934 1.43934 1.5
      vertex 0 0 1.5
      vertex 1.92597 1.11418 1.5
    endloop
  endfacet
  facet normal 0 0 1
    outer loop
      vertex 1.11418 1.92597 1.5
      vertex 0 0 1.5
      vertex 1.43934 1.43934 1.5
    endloop
  endfacet
  facet normal 0 0 1
    outer loop
      vertex 1 2.5 1.5
      vertex 0 0 1.5
      vertex 1.11418 1.92597 1.5
    endloop
  endfacet
  facet normal 0 0 1
    outer loop
      vertex 1.11418 3.07402 1.5
      vertex 0 0 1.5
      vertex 1 2.5 1.5
    endloop
  endfacet
  facet normal 0 0 -1
    outer loop
      vertex 3.88582 56.926 0
      vertex 94.1142 56.926 0
      vertex 3.88582 3.07402 0
    endloop
  endfacet
  facet normal 0 0 -1
    outer loop
      vertex 94.1142 56.926 0
      vertex 3.88582 56.926 0
      vertex 4 57.5 0
    endloop
  endfacet
  facet normal 0 0 -1
    outer loop
      vertex 3.56066 3.56066 0
      vertex 3.88582 56.926 0
      vertex 3.88582 3.07402 0
    endloop
  endfacet
  facet normal 0 0 -1
    outer loop
      vertex 3.56066 3.56066 0
      vertex 3.56066 56.4393 0
      vertex 3.88582 56.926 0
    endloop
  endfacet
  facet normal 0 0 -1
    outer loop
      vertex 3.07402 3.88582 0
      vertex 3.56066 56.4393 0
      vertex 3.56066 3.56066 0
    endloop
  endfacet
  facet normal 0 0 -1
    outer loop
      vertex 3.07402 3.88582 0
      vertex 3.07402 56.1142 0
      vertex 3.56066 56.4393 0
    endloop
  endfacet
  facet normal 0 0 -1
    outer loop
      vertex 2.5 4 0
      vertex 3.07402 56.1142 0
      vertex 3.07402 3.88582 0
    endloop
  endfacet
  facet normal 0 0 -1
    outer loop
      vertex 2.5 4 0
      vertex 2.5 56 0
      vertex 3.07402 56.1142 0
    endloop
  endfacet
  facet normal 0 0 -1
    outer loop
      vertex 1.92597 3.88582 0
      vertex 2.5 56 0
      vertex 2.5 4 0
    endloop
  endfacet
  facet normal 0 0 -1
    outer loop
      vertex 1.92597 3.88582 0
      vertex 1.92597 56.1142 0
      vertex 2.5 56 0
    endloop
  endfacet
  facet normal 0 0 -1
    outer loop
      vertex 1.43934 3.56066 0
      vertex 1.92597 56.1142 0
      vertex 1.92597 3.88582 0
    endloop
  endfacet
  facet normal 0 0 -1
    outer loop
      vertex 1.43934 3.56066 0
      vertex 1.43934 56.4393 0
      vertex 1.92597 56.1142 0
    endloop
  endfacet
  facet normal 0 0 -1
    outer loop
      vertex 1.11418 3.07402 0
      vertex 1.43934 56.4393 0
      vertex 1.43934 3.56066 0
    endloop
  endfacet
  facet normal 0 0 -1
    outer loop
      vertex 1.11418 3.07402 0
      vertex 1.11418 56.926 0
      vertex 1.43934 56.4393 0
    endloop
  endfacet
  facet normal 0 0 -1
    outer loop
      vertex 0 0 0
      vertex 1.11418 3.07402 0
      vertex 1 2.5 0
    endloop
  endfacet
  facet normal -0 0 -1
    outer loop
      vertex 1.11418 3.07402 0
      vertex 0 0 0
      vertex 1.11418 56.926 0
    endloop
  endfacet
  facet normal 0 0 -1
    outer loop
      vertex 96.8858 56.926 0
      vertex 98 60 0
      vertex 96.8858 3.07402 0
    endloop
  endfacet
  facet normal 0 0 -1
    outer loop
      vertex 98 60 0
      vertex 96.8858 56.926 0
      vertex 97 57.5 0
    endloop
  endfacet
  facet normal 0 0 -1
    outer loop
      vertex 96.5607 3.56066 0
      vertex 96.8858 56.926 0
      vertex 96.8858 3.07402 0
    endloop
  endfacet
  facet normal 0 0 -1
    outer loop
      vertex 96.5607 3.56066 0
      vertex 96.5607 56.4393 0
      vertex 96.8858 56.926 0
    endloop
  endfacet
  facet normal 0 0 -1
    outer loop
      vertex 96.074 3.88582 0
      vertex 96.5607 56.4393 0
      vertex 96.5607 3.56066 0
    endloop
  endfacet
  facet normal 0 0 -1
    outer loop
      vertex 96.074 3.88582 0
      vertex 96.074 56.1142 0
      vertex 96.5607 56.4393 0
    endloop
  endfacet
  facet normal 0 0 -1
    outer loop
      vertex 95.5 4 0
      vertex 96.074 56.1142 0
      vertex 96.074 3.88582 0
    endloop
  endfacet
  facet normal 0 0 -1
    outer loop
      vertex 95.5 4 0
      vertex 95.5 56 0
      vertex 96.074 56.1142 0
    endloop
  endfacet
  facet normal 0 0 -1
    outer loop
      vertex 94.926 3.88582 0
      vertex 95.5 56 0
      vertex 95.5 4 0
    endloop
  endfacet
  facet normal 0 0 -1
    outer loop
      vertex 94.926 3.88582 0
      vertex 94.926 56.1142 0
      vertex 95.5 56 0
    endloop
  endfacet
  facet normal 0 0 -1
    outer loop
      vertex 94.4393 3.56066 0
      vertex 94.926 56.1142 0
      vertex 94.926 3.88582 0
    endloop
  endfacet
  facet normal 0 0 -1
    outer loop
      vertex 94.4393 3.56066 0
      vertex 94.4393 56.4393 0
      vertex 94.926 56.1142 0
    endloop
  endfacet
  facet normal 0 0 -1
    outer loop
      vertex 94.1142 3.07402 0
      vertex 94.4393 56.4393 0
      vertex 94.4393 3.56066 0
    endloop
  endfacet
  facet normal 0 0 -1
    outer loop
      vertex 94.1142 3.07402 0
      vertex 94.1142 56.926 0
      vertex 94.4393 56.4393 0
    endloop
  endfacet
  facet normal 0 0 -1
    outer loop
      vertex 4 2.5 0
      vertex 94.1142 3.07402 0
      vertex 94 2.5 0
    endloop
  endfacet
  facet normal 0 0 -1
    outer loop
      vertex 3.88582 3.07402 0
      vertex 94.1142 3.07402 0
      vertex 4 2.5 0
    endloop
  endfacet
  facet normal 0 0 -1
    outer loop
      vertex 96.8858 3.07402 0
      vertex 98 0 0
      vertex 97 2.5 0
    endloop
  endfacet
  facet normal 0 0 -1
    outer loop
      vertex 98 0 0
      vertex 96.8858 1.92597 0
      vertex 97 2.5 0
    endloop
  endfacet
  facet normal 0 0 -1
    outer loop
      vertex 98 0 0
      vertex 96.5607 1.43934 0
      vertex 96.8858 1.92597 0
    endloop
  endfacet
  facet normal 0 0 -1
    outer loop
      vertex 98 0 0
      vertex 96.074 1.11418 0
      vertex 96.5607 1.43934 0
    endloop
  endfacet
  facet normal 0 0 -1
    outer loop
      vertex 98 0 0
      vertex 95.5 1 0
      vertex 96.074 1.11418 0
    endloop
  endfacet
  facet normal 0 0 -1
    outer loop
      vertex 98 0 0
      vertex 94.926 1.11418 0
      vertex 95.5 1 0
    endloop
  endfacet
  facet normal 0 0 -1
    outer loop
      vertex 94.1142 3.07402 0
      vertex 3.88582 3.07402 0
      vertex 94.1142 56.926 0
    endloop
  endfacet
  facet normal 0 0 -1
    outer loop
      vertex 94.1142 1.92597 0
      vertex 4 2.5 0
      vertex 94 2.5 0
    endloop
  endfacet
  facet normal 0 0 -1
    outer loop
      vertex 3.88582 1.92597 0
      vertex 94.1142 1.92597 0
      vertex 94.4393 1.43934 0
    endloop
  endfacet
  facet normal 0 0 -1
    outer loop
      vertex 3.56066 1.43934 0
      vertex 94.4393 1.43934 0
      vertex 94.926 1.11418 0
    endloop
  endfacet
  facet normal 0 0 -1
    outer loop
      vertex 3.07402 1.11418 0
      vertex 94.926 1.11418 0
      vertex 98 0 0
    endloop
  endfacet
  facet normal 0 0 -1
    outer loop
      vertex 94.1142 1.92597 0
      vertex 3.88582 1.92597 0
      vertex 4 2.5 0
    endloop
  endfacet
  facet normal 0 0 -1
    outer loop
      vertex 94.4393 1.43934 0
      vertex 3.56066 1.43934 0
      vertex 3.88582 1.92597 0
    endloop
  endfacet
  facet normal 0 0 -1
    outer loop
      vertex 94.926 1.11418 0
      vertex 3.07402 1.11418 0
      vertex 3.56066 1.43934 0
    endloop
  endfacet
  facet normal 0 0 -1
    outer loop
      vertex 0 0 0
      vertex 3.07402 1.11418 0
      vertex 98 0 0
    endloop
  endfacet
  facet normal 0 0 -1
    outer loop
      vertex 0 60 0
      vertex 1.11418 56.926 0
      vertex 0 0 0
    endloop
  endfacet
  facet normal -0 0 -1
    outer loop
      vertex 1.11418 1.92597 0
      vertex 0 0 0
      vertex 1 2.5 0
    endloop
  endfacet
  facet normal -0 0 -1
    outer loop
      vertex 1.43934 1.43934 0
      vertex 0 0 0
      vertex 1.11418 1.92597 0
    endloop
  endfacet
  facet normal -0 0 -1
    outer loop
      vertex 1.92597 1.11418 0
      vertex 0 0 0
      vertex 1.43934 1.43934 0
    endloop
  endfacet
  facet normal -0 0 -1
    outer loop
      vertex 2.5 1 0
      vertex 0 0 0
      vertex 1.92597 1.11418 0
    endloop
  endfacet
  facet normal 0 0 -1
    outer loop
      vertex 3.07402 1.11418 0
      vertex 0 0 0
      vertex 2.5 1 0
    endloop
  endfacet
  facet normal 0 0 -1
    outer loop
      vertex 98 0 0
      vertex 96.8858 3.07402 0
      vertex 98 60 0
    endloop
  endfacet
  facet normal 0 0 -1
    outer loop
      vertex 96.8858 58.074 0
      vertex 98 60 0
      vertex 97 57.5 0
    endloop
  endfacet
  facet normal 0 0 -1
    outer loop
      vertex 96.5607 58.5607 0
      vertex 98 60 0
      vertex 96.8858 58.074 0
    endloop
  endfacet
  facet normal 0 0 -1
    outer loop
      vertex 96.074 58.8858 0
      vertex 98 60 0
      vertex 96.5607 58.5607 0
    endloop
  endfacet
  facet normal 0 0 -1
    outer loop
      vertex 95.5 59 0
      vertex 98 60 0
      vertex 96.074 58.8858 0
    endloop
  endfacet
  facet normal 0 0 -1
    outer loop
      vertex 94.926 58.8858 0
      vertex 98 60 0
      vertex 95.5 59 0
    endloop
  endfacet
  facet normal 0 0 -1
    outer loop
      vertex 94.1142 56.926 0
      vertex 4 57.5 0
      vertex 94 57.5 0
    endloop
  endfacet
  facet normal 0 0 -1
    outer loop
      vertex 94 57.5 0
      vertex 4 57.5 0
      vertex 94.1142 58.074 0
    endloop
  endfacet
  facet normal 0 0 -1
    outer loop
      vertex 3.88582 58.074 0
      vertex 94.1142 58.074 0
      vertex 4 57.5 0
    endloop
  endfacet
  facet normal 0 0 -1
    outer loop
      vertex 94.1142 58.074 0
      vertex 3.88582 58.074 0
      vertex 94.4393 58.5607 0
    endloop
  endfacet
  facet normal 0 0 -1
    outer loop
      vertex 3.56066 58.5607 0
      vertex 94.4393 58.5607 0
      vertex 3.88582 58.074 0
    endloop
  endfacet
  facet normal 0 0 -1
    outer loop
      vertex 94.4393 58.5607 0
      vertex 3.56066 58.5607 0
      vertex 94.926 58.8858 0
    endloop
  endfacet
  facet normal 0 0 -1
    outer loop
      vertex 3.07402 58.8858 0
      vertex 94.926 58.8858 0
      vertex 3.56066 58.5607 0
    endloop
  endfacet
  facet normal 0 0 -1
    outer loop
      vertex 94.926 58.8858 0
      vertex 3.07402 58.8858 0
      vertex 98 60 0
    endloop
  endfacet
  facet normal 0 0 -1
    outer loop
      vertex 0 60 0
      vertex 3.07402 58.8858 0
      vertex 2.5 59 0
    endloop
  endfacet
  facet normal 0 0 -1
    outer loop
      vertex 3.07402 58.8858 0
      vertex 0 60 0
      vertex 98 60 0
    endloop
  endfacet
  facet normal 0 0 -1
    outer loop
      vertex 1.92597 58.8858 0
      vertex 0 60 0
      vertex 2.5 59 0
    endloop
  endfacet
  facet normal 0 0 -1
    outer loop
      vertex 1.43934 58.5607 0
      vertex 0 60 0
      vertex 1.92597 58.8858 0
    endloop
  endfacet
  facet normal 0 0 -1
    outer loop
      vertex 1.11418 58.074 0
      vertex 0 60 0
      vertex 1.43934 58.5607 0
    endloop
  endfacet
  facet normal 0 0 -1
    outer loop
      vertex 1 57.5 0
      vertex 0 60 0
      vertex 1.11418 58.074 0
    endloop
  endfacet
  facet normal 0 0 -1
    outer loop
      vertex 1.11418 56.926 0
      vertex 0 60 0
      vertex 1 57.5 0
    endloop
  endfacet
  facet normal -1 0 0
    outer loop
      vertex 0 60 0
      vertex 0 50 1.5
      vertex 0 60 1.5
    endloop
  endfacet
  facet normal -1 0 0
    outer loop
      vertex 0 50 1.5
      vertex 0 10 1.5
      vertex 0 50 11.5
    endloop
  endfacet
  facet normal -1 0 0
    outer loop
      vertex 0 60 0
      vertex 0 10 1.5
      vertex 0 50 1.5
    endloop
  endfacet
  facet normal -1 0 0
    outer loop
      vertex 0 0 0
      vertex 0 10 1.5
      vertex 0 60 0
    endloop
  endfacet
  facet normal -1 -0 0
    outer loop
      vertex 0 10 1.5
      vertex 0 0 0
      vertex 0 0 1.5
    endloop
  endfacet
  facet normal -1 -0 0
    outer loop
      vertex 0 50 11.5
      vertex 0 10 1.5
      vertex 0 10 11.5
    endloop
  endfacet
  facet normal 0 1 -0
    outer loop
      vertex 98 60 0
      vertex 0 60 1.5
      vertex 98 60 1.5
    endloop
  endfacet
  facet normal 0 1 0
    outer loop
      vertex 0 60 1.5
      vertex 98 60 0
      vertex 0 60 0
    endloop
  endfacet
  facet normal 0 -1 0
    outer loop
      vertex 0 0 0
      vertex 98 0 1.5
      vertex 0 0 1.5
    endloop
  endfacet
  facet normal 0 -1 -0
    outer loop
      vertex 98 0 1.5
      vertex 0 0 0
      vertex 98 0 0
    endloop
  endfacet
  facet normal 0 0 1
    outer loop
      vertex 98 50 11.5
      vertex 87 42.5 11.5
      vertex 98 10 11.5
    endloop
  endfacet
  facet normal 0 0 1
    outer loop
      vertex 98 50 11.5
      vertex 11 42.5 11.5
      vertex 87 42.5 11.5
    endloop
  endfacet
  facet normal 0 0 1
    outer loop
      vertex 11 42.5 11.5
      vertex 0 50 11.5
      vertex 11 17.5 11.5
    endloop
  endfacet
  facet normal -0 0 1
    outer loop
      vertex 0 50 11.5
      vertex 11 42.5 11.5
      vertex 98 50 11.5
    endloop
  endfacet
  facet normal -0 0 1
    outer loop
      vertex 87 17.5 11.5
      vertex 98 10 11.5
      vertex 87 42.5 11.5
    endloop
  endfacet
  facet normal -0 0 1
    outer loop
      vertex 11 17.5 11.5
      vertex 98 10 11.5
      vertex 87 17.5 11.5
    endloop
  endfacet
  facet normal 0 0 1
    outer loop
      vertex 11 17.5 11.5
      vertex 0 10 11.5
      vertex 98 10 11.5
    endloop
  endfacet
  facet normal 0 0 1
    outer loop
      vertex 0 10 11.5
      vertex 11 17.5 11.5
      vertex 0 50 11.5
    endloop
  endfacet
  facet normal 0 1 -0
    outer loop
      vertex 98 50 1.5
      vertex 0 50 11.5
      vertex 98 50 11.5
    endloop
  endfacet
  facet normal 0 1 0
    outer loop
      vertex 0 50 11.5
      vertex 98 50 1.5
      vertex 0 50 1.5
    endloop
  endfacet
  facet normal 0 -1 0
    outer loop
      vertex 0 10 1.5
      vertex 98 10 11.5
      vertex 0 10 11.5
    endloop
  endfacet
  facet normal 0 -1 -0
    outer loop
      vertex 98 10 11.5
      vertex 0 10 1.5
      vertex 98 10 1.5
    endloop
  endfacet
  facet normal -1 0 0
    outer loop
      vertex 87 17.5 11
      vertex 87 42.5 11.5
      vertex 87 42.5 11
    endloop
  endfacet
  facet normal -1 -0 0
    outer loop
      vertex 87 42.5 11.5
      vertex 87 17.5 11
      vertex 87 17.5 11.5
    endloop
  endfacet
  facet normal -0 0 1
    outer loop
      vertex 11 42.5 11
      vertex 87 17.5 11
      vertex 87 42.5 11
    endloop
  endfacet
  facet normal 0 0 1
    outer loop
      vertex 87 17.5 11
      vertex 11 42.5 11
      vertex 11 17.5 11
    endloop
  endfacet
  facet normal 1 -0 0
    outer loop
      vertex 11 17.5 11.5
      vertex 11 42.5 11
      vertex 11 42.5 11.5
    endloop
  endfacet
  facet normal 1 0 0
    outer loop
      vertex 11 42.5 11
      vertex 11 17.5 11.5
      vertex 11 17.5 11
    endloop
  endfacet
  facet normal 0 -1 0
    outer loop
      vertex 11 42.5 11
      vertex 87 42.5 11.5
      vertex 11 42.5 11.5
    endloop
  endfacet
  facet normal 0 -1 -0
    outer loop
      vertex 87 42.5 11.5
      vertex 11 42.5 11
      vertex 87 42.5 11
    endloop
  endfacet
  facet normal 0 1 -0
    outer loop
      vertex 87 17.5 11
      vertex 11 17.5 11.5
      vertex 87 17.5 11.5
    endloop
  endfacet
  facet normal 0 1 0
    outer loop
      vertex 11 17.5 11.5
      vertex 87 17.5 11
      vertex 11 17.5 11
    endloop
  endfacet
endsolid OpenSCAD_Model
