G04 #@! TF.GenerationSoftware,KiCad,Pcbnew,5.1.2-f72e74a~84~ubuntu16.04.1*
G04 #@! TF.CreationDate,2019-07-02T21:00:39+02:00*
G04 #@! TF.ProjectId,Ethernet_Display,45746865-726e-4657-945f-446973706c61,rev?*
G04 #@! TF.SameCoordinates,Original*
G04 #@! TF.FileFunction,Copper,L2,Bot*
G04 #@! TF.FilePolarity,Positive*
%FSLAX46Y46*%
G04 Gerber Fmt 4.6, Leading zero omitted, Abs format (unit mm)*
G04 Created by KiCad (PCBNEW 5.1.2-f72e74a~84~ubuntu16.04.1) date 2019-07-02 21:00:39*
%MOMM*%
%LPD*%
G04 APERTURE LIST*
%ADD10O,1.600000X1.600000*%
%ADD11C,1.600000*%
%ADD12C,2.340000*%
%ADD13O,1.700000X1.700000*%
%ADD14R,1.700000X1.700000*%
%ADD15C,4.064000*%
%ADD16C,0.500000*%
%ADD17C,0.400000*%
G04 APERTURE END LIST*
D10*
X61722000Y-33401000D03*
D11*
X49022000Y-33401000D03*
D12*
X27432000Y-48133000D03*
X22432000Y-45633000D03*
X27432000Y-43133000D03*
D13*
X76962000Y-27559000D03*
X74422000Y-27559000D03*
X71882000Y-27559000D03*
X69342000Y-27559000D03*
X66802000Y-27559000D03*
X64262000Y-27559000D03*
X61722000Y-27559000D03*
X59182000Y-27559000D03*
X56642000Y-27559000D03*
X54102000Y-27559000D03*
X51562000Y-27559000D03*
X49022000Y-27559000D03*
X46482000Y-27559000D03*
X43942000Y-27559000D03*
X41402000Y-27559000D03*
D14*
X38862000Y-27559000D03*
D13*
X59945000Y-18923000D03*
X57405000Y-18923000D03*
X54865000Y-18923000D03*
X52325000Y-18923000D03*
X49785000Y-18923000D03*
X47245000Y-18923000D03*
X44705000Y-18923000D03*
D14*
X42165000Y-18923000D03*
D13*
X81788000Y-18923000D03*
X79248000Y-18923000D03*
X76708000Y-18923000D03*
X74168000Y-18923000D03*
X71628000Y-18923000D03*
X69088000Y-18923000D03*
X66548000Y-18923000D03*
D14*
X64008000Y-18923000D03*
D13*
X81788000Y-67183000D03*
X79248000Y-67183000D03*
X76708000Y-67183000D03*
X74168000Y-67183000D03*
X71628000Y-67183000D03*
D14*
X69088000Y-67183000D03*
D13*
X64008000Y-67183000D03*
X61468000Y-67183000D03*
X58928000Y-67183000D03*
X56388000Y-67183000D03*
X53848000Y-67183000D03*
D14*
X51308000Y-67183000D03*
D15*
X32258000Y-67183000D03*
X84328000Y-62103000D03*
X33528000Y-18923000D03*
X84328000Y-34163000D03*
D16*
X46041919Y-33401000D02*
X47890630Y-33401000D01*
X41402000Y-28761081D02*
X46041919Y-33401000D01*
X47890630Y-33401000D02*
X49022000Y-33401000D01*
X41402000Y-27559000D02*
X41402000Y-28761081D01*
X49022000Y-59817000D02*
X56388000Y-67183000D01*
X49022000Y-33401000D02*
X49022000Y-59817000D01*
X41402000Y-29163000D02*
X27432000Y-43133000D01*
X41402000Y-27559000D02*
X41402000Y-29163000D01*
D17*
X61214000Y-37211000D02*
X52411999Y-28408999D01*
X74168000Y-18923000D02*
X75692000Y-20447000D01*
X52411999Y-28408999D02*
X51562000Y-27559000D01*
X75692000Y-20447000D02*
X75692000Y-31623000D01*
X75692000Y-31623000D02*
X70104000Y-37211000D01*
X70104000Y-37211000D02*
X61214000Y-37211000D01*
D16*
X45632001Y-26709001D02*
X46482000Y-27559000D01*
X40664999Y-21741999D02*
X45632001Y-26709001D01*
X40664999Y-17552999D02*
X40664999Y-21741999D01*
X60665001Y-17422999D02*
X40794999Y-17422999D01*
X61445001Y-18202999D02*
X60665001Y-17422999D01*
X61445001Y-19230003D02*
X61445001Y-18202999D01*
X40794999Y-17422999D02*
X40664999Y-17552999D01*
X63031989Y-20816991D02*
X61445001Y-19230003D01*
X69734009Y-20816991D02*
X63031989Y-20816991D01*
X71628000Y-18923000D02*
X69734009Y-20816991D01*
X55714999Y-19772999D02*
X54865000Y-18923000D01*
X66294000Y-21971000D02*
X57913000Y-21971000D01*
X57913000Y-21971000D02*
X55714999Y-19772999D01*
X71882000Y-27559000D02*
X66294000Y-21971000D01*
X53174999Y-19772999D02*
X52325000Y-18923000D01*
X56389000Y-22987000D02*
X53174999Y-19772999D01*
X64770000Y-22987000D02*
X56389000Y-22987000D01*
X69342000Y-27559000D02*
X64770000Y-22987000D01*
X50634999Y-19772999D02*
X49785000Y-18923000D01*
X55119000Y-24257000D02*
X50634999Y-19772999D01*
X63500000Y-24257000D02*
X55119000Y-24257000D01*
X66802000Y-27559000D02*
X63500000Y-24257000D01*
X53595000Y-25273000D02*
X48094999Y-19772999D01*
X48094999Y-19772999D02*
X47245000Y-18923000D01*
X61976000Y-25273000D02*
X53595000Y-25273000D01*
X64262000Y-27559000D02*
X61976000Y-25273000D01*
X68580000Y-33401000D02*
X74422000Y-27559000D01*
X61722000Y-33401000D02*
X68580000Y-33401000D01*
X22432000Y-43978371D02*
X22432000Y-45633000D01*
X22432000Y-38909000D02*
X22432000Y-43978371D01*
X43942000Y-27559000D02*
X43942000Y-26356919D01*
X43942000Y-26356919D02*
X42350081Y-24765000D01*
X42350081Y-24765000D02*
X36576000Y-24765000D01*
X36576000Y-24765000D02*
X22432000Y-38909000D01*
G36*
X31062624Y-17605229D02*
G01*
X30852911Y-18111521D01*
X30746000Y-18648997D01*
X30746000Y-19197003D01*
X30852911Y-19734479D01*
X31062624Y-20240771D01*
X31367079Y-20696422D01*
X31754578Y-21083921D01*
X32210229Y-21388376D01*
X32716521Y-21598089D01*
X33253997Y-21705000D01*
X33802003Y-21705000D01*
X34339479Y-21598089D01*
X34845771Y-21388376D01*
X35301422Y-21083921D01*
X35688921Y-20696422D01*
X35993376Y-20240771D01*
X36203089Y-19734479D01*
X36310000Y-19197003D01*
X36310000Y-18648997D01*
X36203089Y-18111521D01*
X35993376Y-17605229D01*
X35727957Y-17208000D01*
X39724657Y-17208000D01*
X39679469Y-17356965D01*
X39660161Y-17552999D01*
X39664999Y-17602119D01*
X39665000Y-21692869D01*
X39660161Y-21741999D01*
X39679469Y-21938033D01*
X39736650Y-22126533D01*
X39779874Y-22207399D01*
X39829508Y-22300257D01*
X39954472Y-22452527D01*
X39992631Y-22483843D01*
X41273787Y-23765000D01*
X36625120Y-23765000D01*
X36576000Y-23760162D01*
X36526880Y-23765000D01*
X36379966Y-23779470D01*
X36191465Y-23836651D01*
X36017742Y-23929508D01*
X35865472Y-24054472D01*
X35834160Y-24092626D01*
X21759637Y-38167151D01*
X21721472Y-38198472D01*
X21596508Y-38350742D01*
X21503652Y-38524465D01*
X21503651Y-38524466D01*
X21446470Y-38712966D01*
X21427162Y-38909000D01*
X21432000Y-38958120D01*
X21432001Y-43929242D01*
X21432000Y-43929252D01*
X21432000Y-43992014D01*
X21208071Y-44141639D01*
X20940639Y-44409071D01*
X20730518Y-44723539D01*
X20585785Y-45072957D01*
X20512000Y-45443897D01*
X20512000Y-45822103D01*
X20585785Y-46193043D01*
X20730518Y-46542461D01*
X20940639Y-46856929D01*
X21208071Y-47124361D01*
X21522539Y-47334482D01*
X21871957Y-47479215D01*
X22242897Y-47553000D01*
X22621103Y-47553000D01*
X22992043Y-47479215D01*
X23341461Y-47334482D01*
X23655929Y-47124361D01*
X23923361Y-46856929D01*
X24133482Y-46542461D01*
X24278215Y-46193043D01*
X24352000Y-45822103D01*
X24352000Y-45443897D01*
X24278215Y-45072957D01*
X24133482Y-44723539D01*
X23923361Y-44409071D01*
X23655929Y-44141639D01*
X23432000Y-43992014D01*
X23432000Y-39323212D01*
X36990214Y-25765000D01*
X41935869Y-25765000D01*
X42709536Y-26538668D01*
X42672000Y-26584405D01*
X42538845Y-26422155D01*
X42295213Y-26222212D01*
X42017256Y-26073641D01*
X41715655Y-25982151D01*
X41480597Y-25959000D01*
X41323403Y-25959000D01*
X41088345Y-25982151D01*
X40786744Y-26073641D01*
X40508787Y-26222212D01*
X40265155Y-26422155D01*
X40065212Y-26665787D01*
X39916641Y-26943744D01*
X39825151Y-27245345D01*
X39794259Y-27559000D01*
X39825151Y-27872655D01*
X39916641Y-28174256D01*
X40065212Y-28452213D01*
X40265155Y-28695845D01*
X40369394Y-28781392D01*
X27885246Y-41265542D01*
X27621103Y-41213000D01*
X27242897Y-41213000D01*
X26871957Y-41286785D01*
X26522539Y-41431518D01*
X26208071Y-41641639D01*
X25940639Y-41909071D01*
X25730518Y-42223539D01*
X25585785Y-42572957D01*
X25512000Y-42943897D01*
X25512000Y-43322103D01*
X25585785Y-43693043D01*
X25730518Y-44042461D01*
X25940639Y-44356929D01*
X26208071Y-44624361D01*
X26522539Y-44834482D01*
X26871957Y-44979215D01*
X27242897Y-45053000D01*
X27621103Y-45053000D01*
X27992043Y-44979215D01*
X28341461Y-44834482D01*
X28655929Y-44624361D01*
X28923361Y-44356929D01*
X29133482Y-44042461D01*
X29278215Y-43693043D01*
X29352000Y-43322103D01*
X29352000Y-42943897D01*
X29299458Y-42679754D01*
X41602960Y-30376254D01*
X45300074Y-34073368D01*
X45331391Y-34111528D01*
X45483661Y-34236492D01*
X45657384Y-34329349D01*
X45845885Y-34386530D01*
X45992799Y-34401000D01*
X45992800Y-34401000D01*
X46041918Y-34405838D01*
X46091036Y-34401000D01*
X47829968Y-34401000D01*
X48022000Y-34593032D01*
X48022001Y-59767870D01*
X48017162Y-59817000D01*
X48036470Y-60013034D01*
X48093651Y-60201534D01*
X48093652Y-60201535D01*
X48186509Y-60375258D01*
X48311473Y-60527528D01*
X48349632Y-60558844D01*
X53428919Y-65638132D01*
X53232744Y-65697641D01*
X52954787Y-65846212D01*
X52811205Y-65964046D01*
X52784619Y-65914307D01*
X52690895Y-65800105D01*
X52576693Y-65706381D01*
X52446401Y-65636739D01*
X52305026Y-65593853D01*
X52158000Y-65579372D01*
X50458000Y-65579372D01*
X50310974Y-65593853D01*
X50169599Y-65636739D01*
X50039307Y-65706381D01*
X49925105Y-65800105D01*
X49831381Y-65914307D01*
X49761739Y-66044599D01*
X49718853Y-66185974D01*
X49704372Y-66333000D01*
X49704372Y-68033000D01*
X49718853Y-68180026D01*
X49761739Y-68321401D01*
X49831381Y-68451693D01*
X49925105Y-68565895D01*
X50039307Y-68659619D01*
X50169599Y-68729261D01*
X50310974Y-68772147D01*
X50458000Y-68786628D01*
X52158000Y-68786628D01*
X52305026Y-68772147D01*
X52446401Y-68729261D01*
X52576693Y-68659619D01*
X52690895Y-68565895D01*
X52784619Y-68451693D01*
X52811205Y-68401954D01*
X52954787Y-68519788D01*
X53232744Y-68668359D01*
X53534345Y-68759849D01*
X53769403Y-68783000D01*
X53926597Y-68783000D01*
X54161655Y-68759849D01*
X54463256Y-68668359D01*
X54741213Y-68519788D01*
X54984845Y-68319845D01*
X55118000Y-68157595D01*
X55251155Y-68319845D01*
X55494787Y-68519788D01*
X55772744Y-68668359D01*
X56074345Y-68759849D01*
X56309403Y-68783000D01*
X56466597Y-68783000D01*
X56701655Y-68759849D01*
X57003256Y-68668359D01*
X57281213Y-68519788D01*
X57524845Y-68319845D01*
X57724788Y-68076213D01*
X57873359Y-67798256D01*
X57964849Y-67496655D01*
X57995741Y-67183000D01*
X62400259Y-67183000D01*
X62431151Y-67496655D01*
X62522641Y-67798256D01*
X62671212Y-68076213D01*
X62871155Y-68319845D01*
X63114787Y-68519788D01*
X63392744Y-68668359D01*
X63694345Y-68759849D01*
X63929403Y-68783000D01*
X64086597Y-68783000D01*
X64321655Y-68759849D01*
X64623256Y-68668359D01*
X64901213Y-68519788D01*
X65144845Y-68319845D01*
X65344788Y-68076213D01*
X65493359Y-67798256D01*
X65584849Y-67496655D01*
X65615741Y-67183000D01*
X65584849Y-66869345D01*
X65493359Y-66567744D01*
X65367886Y-66333000D01*
X67484372Y-66333000D01*
X67484372Y-68033000D01*
X67498853Y-68180026D01*
X67541739Y-68321401D01*
X67611381Y-68451693D01*
X67705105Y-68565895D01*
X67819307Y-68659619D01*
X67949599Y-68729261D01*
X68090974Y-68772147D01*
X68238000Y-68786628D01*
X69938000Y-68786628D01*
X70085026Y-68772147D01*
X70226401Y-68729261D01*
X70356693Y-68659619D01*
X70470895Y-68565895D01*
X70564619Y-68451693D01*
X70591205Y-68401954D01*
X70734787Y-68519788D01*
X71012744Y-68668359D01*
X71314345Y-68759849D01*
X71549403Y-68783000D01*
X71706597Y-68783000D01*
X71941655Y-68759849D01*
X72243256Y-68668359D01*
X72521213Y-68519788D01*
X72764845Y-68319845D01*
X72898000Y-68157595D01*
X73031155Y-68319845D01*
X73274787Y-68519788D01*
X73552744Y-68668359D01*
X73854345Y-68759849D01*
X74089403Y-68783000D01*
X74246597Y-68783000D01*
X74481655Y-68759849D01*
X74783256Y-68668359D01*
X75061213Y-68519788D01*
X75304845Y-68319845D01*
X75438000Y-68157595D01*
X75571155Y-68319845D01*
X75814787Y-68519788D01*
X76092744Y-68668359D01*
X76394345Y-68759849D01*
X76629403Y-68783000D01*
X76786597Y-68783000D01*
X77021655Y-68759849D01*
X77323256Y-68668359D01*
X77601213Y-68519788D01*
X77844845Y-68319845D01*
X77978000Y-68157595D01*
X78111155Y-68319845D01*
X78354787Y-68519788D01*
X78632744Y-68668359D01*
X78934345Y-68759849D01*
X79169403Y-68783000D01*
X79326597Y-68783000D01*
X79561655Y-68759849D01*
X79863256Y-68668359D01*
X80141213Y-68519788D01*
X80384845Y-68319845D01*
X80518000Y-68157595D01*
X80651155Y-68319845D01*
X80894787Y-68519788D01*
X81172744Y-68668359D01*
X81474345Y-68759849D01*
X81709403Y-68783000D01*
X81866597Y-68783000D01*
X82101655Y-68759849D01*
X82403256Y-68668359D01*
X82681213Y-68519788D01*
X82924845Y-68319845D01*
X83124788Y-68076213D01*
X83273359Y-67798256D01*
X83364849Y-67496655D01*
X83395741Y-67183000D01*
X83364849Y-66869345D01*
X83273359Y-66567744D01*
X83124788Y-66289787D01*
X82924845Y-66046155D01*
X82681213Y-65846212D01*
X82403256Y-65697641D01*
X82101655Y-65606151D01*
X81866597Y-65583000D01*
X81709403Y-65583000D01*
X81474345Y-65606151D01*
X81172744Y-65697641D01*
X80894787Y-65846212D01*
X80651155Y-66046155D01*
X80518000Y-66208405D01*
X80384845Y-66046155D01*
X80141213Y-65846212D01*
X79863256Y-65697641D01*
X79561655Y-65606151D01*
X79326597Y-65583000D01*
X79169403Y-65583000D01*
X78934345Y-65606151D01*
X78632744Y-65697641D01*
X78354787Y-65846212D01*
X78111155Y-66046155D01*
X77978000Y-66208405D01*
X77844845Y-66046155D01*
X77601213Y-65846212D01*
X77323256Y-65697641D01*
X77021655Y-65606151D01*
X76786597Y-65583000D01*
X76629403Y-65583000D01*
X76394345Y-65606151D01*
X76092744Y-65697641D01*
X75814787Y-65846212D01*
X75571155Y-66046155D01*
X75438000Y-66208405D01*
X75304845Y-66046155D01*
X75061213Y-65846212D01*
X74783256Y-65697641D01*
X74481655Y-65606151D01*
X74246597Y-65583000D01*
X74089403Y-65583000D01*
X73854345Y-65606151D01*
X73552744Y-65697641D01*
X73274787Y-65846212D01*
X73031155Y-66046155D01*
X72898000Y-66208405D01*
X72764845Y-66046155D01*
X72521213Y-65846212D01*
X72243256Y-65697641D01*
X71941655Y-65606151D01*
X71706597Y-65583000D01*
X71549403Y-65583000D01*
X71314345Y-65606151D01*
X71012744Y-65697641D01*
X70734787Y-65846212D01*
X70591205Y-65964046D01*
X70564619Y-65914307D01*
X70470895Y-65800105D01*
X70356693Y-65706381D01*
X70226401Y-65636739D01*
X70085026Y-65593853D01*
X69938000Y-65579372D01*
X68238000Y-65579372D01*
X68090974Y-65593853D01*
X67949599Y-65636739D01*
X67819307Y-65706381D01*
X67705105Y-65800105D01*
X67611381Y-65914307D01*
X67541739Y-66044599D01*
X67498853Y-66185974D01*
X67484372Y-66333000D01*
X65367886Y-66333000D01*
X65344788Y-66289787D01*
X65144845Y-66046155D01*
X64901213Y-65846212D01*
X64623256Y-65697641D01*
X64321655Y-65606151D01*
X64086597Y-65583000D01*
X63929403Y-65583000D01*
X63694345Y-65606151D01*
X63392744Y-65697641D01*
X63114787Y-65846212D01*
X62871155Y-66046155D01*
X62671212Y-66289787D01*
X62522641Y-66567744D01*
X62431151Y-66869345D01*
X62400259Y-67183000D01*
X57995741Y-67183000D01*
X57964849Y-66869345D01*
X57873359Y-66567744D01*
X57724788Y-66289787D01*
X57524845Y-66046155D01*
X57281213Y-65846212D01*
X57003256Y-65697641D01*
X56701655Y-65606151D01*
X56466597Y-65583000D01*
X56309403Y-65583000D01*
X56211824Y-65592611D01*
X50022000Y-59402788D01*
X50022000Y-34593032D01*
X50225964Y-34389068D01*
X50395592Y-34135200D01*
X50512435Y-33853118D01*
X50572000Y-33553662D01*
X50572000Y-33248338D01*
X50512435Y-32948882D01*
X50395592Y-32666800D01*
X50225964Y-32412932D01*
X50010068Y-32197036D01*
X49756200Y-32027408D01*
X49474118Y-31910565D01*
X49174662Y-31851000D01*
X48869338Y-31851000D01*
X48569882Y-31910565D01*
X48287800Y-32027408D01*
X48033932Y-32197036D01*
X47829968Y-32401000D01*
X46456132Y-32401000D01*
X42634464Y-28579333D01*
X42672000Y-28533595D01*
X42805155Y-28695845D01*
X43048787Y-28895788D01*
X43326744Y-29044359D01*
X43628345Y-29135849D01*
X43863403Y-29159000D01*
X44020597Y-29159000D01*
X44255655Y-29135849D01*
X44557256Y-29044359D01*
X44835213Y-28895788D01*
X45078845Y-28695845D01*
X45212000Y-28533595D01*
X45345155Y-28695845D01*
X45588787Y-28895788D01*
X45866744Y-29044359D01*
X46168345Y-29135849D01*
X46403403Y-29159000D01*
X46560597Y-29159000D01*
X46795655Y-29135849D01*
X47097256Y-29044359D01*
X47375213Y-28895788D01*
X47618845Y-28695845D01*
X47818788Y-28452213D01*
X47967359Y-28174256D01*
X48058849Y-27872655D01*
X48089741Y-27559000D01*
X48058849Y-27245345D01*
X47967359Y-26943744D01*
X47818788Y-26665787D01*
X47618845Y-26422155D01*
X47375213Y-26222212D01*
X47097256Y-26073641D01*
X46795655Y-25982151D01*
X46560597Y-25959000D01*
X46403403Y-25959000D01*
X46305825Y-25968611D01*
X41664999Y-21327787D01*
X41664999Y-20526628D01*
X43015000Y-20526628D01*
X43162026Y-20512147D01*
X43303401Y-20469261D01*
X43433693Y-20399619D01*
X43547895Y-20305895D01*
X43641619Y-20191693D01*
X43668205Y-20141954D01*
X43811787Y-20259788D01*
X44089744Y-20408359D01*
X44391345Y-20499849D01*
X44626403Y-20523000D01*
X44783597Y-20523000D01*
X45018655Y-20499849D01*
X45320256Y-20408359D01*
X45598213Y-20259788D01*
X45841845Y-20059845D01*
X45975000Y-19897595D01*
X46108155Y-20059845D01*
X46351787Y-20259788D01*
X46629744Y-20408359D01*
X46931345Y-20499849D01*
X47166403Y-20523000D01*
X47323597Y-20523000D01*
X47421176Y-20513389D01*
X47422625Y-20514838D01*
X47422631Y-20514843D01*
X52853155Y-25945368D01*
X52884472Y-25983528D01*
X53036742Y-26108492D01*
X53210465Y-26201349D01*
X53234295Y-26208578D01*
X53208787Y-26222212D01*
X52965155Y-26422155D01*
X52832000Y-26584405D01*
X52698845Y-26422155D01*
X52455213Y-26222212D01*
X52177256Y-26073641D01*
X51875655Y-25982151D01*
X51640597Y-25959000D01*
X51483403Y-25959000D01*
X51248345Y-25982151D01*
X50946744Y-26073641D01*
X50668787Y-26222212D01*
X50425155Y-26422155D01*
X50225212Y-26665787D01*
X50076641Y-26943744D01*
X49985151Y-27245345D01*
X49954259Y-27559000D01*
X49985151Y-27872655D01*
X50076641Y-28174256D01*
X50225212Y-28452213D01*
X50425155Y-28695845D01*
X50668787Y-28895788D01*
X50946744Y-29044359D01*
X51248345Y-29135849D01*
X51483403Y-29159000D01*
X51640597Y-29159000D01*
X51802547Y-29143049D01*
X60509254Y-37849757D01*
X60538999Y-37886001D01*
X60575242Y-37915745D01*
X60575245Y-37915748D01*
X60652951Y-37979520D01*
X60683655Y-38004718D01*
X60848692Y-38092932D01*
X61027768Y-38147254D01*
X61167335Y-38161000D01*
X61167345Y-38161000D01*
X61213999Y-38165595D01*
X61260654Y-38161000D01*
X70057346Y-38161000D01*
X70104000Y-38165595D01*
X70150654Y-38161000D01*
X70150665Y-38161000D01*
X70290232Y-38147254D01*
X70469308Y-38092932D01*
X70634345Y-38004718D01*
X70779001Y-37886001D01*
X70808750Y-37849752D01*
X76330757Y-32327746D01*
X76367001Y-32298001D01*
X76449862Y-32197036D01*
X76485717Y-32153346D01*
X76511031Y-32105987D01*
X76573932Y-31988308D01*
X76628254Y-31809232D01*
X76642000Y-31669665D01*
X76642000Y-31669656D01*
X76646595Y-31623001D01*
X76642000Y-31576346D01*
X76642000Y-20523000D01*
X76786597Y-20523000D01*
X77021655Y-20499849D01*
X77323256Y-20408359D01*
X77601213Y-20259788D01*
X77844845Y-20059845D01*
X77978000Y-19897595D01*
X78111155Y-20059845D01*
X78354787Y-20259788D01*
X78632744Y-20408359D01*
X78934345Y-20499849D01*
X79169403Y-20523000D01*
X79326597Y-20523000D01*
X79561655Y-20499849D01*
X79863256Y-20408359D01*
X80141213Y-20259788D01*
X80384845Y-20059845D01*
X80518000Y-19897595D01*
X80651155Y-20059845D01*
X80894787Y-20259788D01*
X81172744Y-20408359D01*
X81474345Y-20499849D01*
X81709403Y-20523000D01*
X81866597Y-20523000D01*
X82101655Y-20499849D01*
X82403256Y-20408359D01*
X82681213Y-20259788D01*
X82924845Y-20059845D01*
X83124788Y-19816213D01*
X83273359Y-19538256D01*
X83364849Y-19236655D01*
X83395741Y-18923000D01*
X83364849Y-18609345D01*
X83273359Y-18307744D01*
X83124788Y-18029787D01*
X82924845Y-17786155D01*
X82681213Y-17586212D01*
X82403256Y-17437641D01*
X82101655Y-17346151D01*
X81866597Y-17323000D01*
X81709403Y-17323000D01*
X81474345Y-17346151D01*
X81172744Y-17437641D01*
X80894787Y-17586212D01*
X80651155Y-17786155D01*
X80518000Y-17948405D01*
X80384845Y-17786155D01*
X80141213Y-17586212D01*
X79863256Y-17437641D01*
X79561655Y-17346151D01*
X79326597Y-17323000D01*
X79169403Y-17323000D01*
X78934345Y-17346151D01*
X78632744Y-17437641D01*
X78354787Y-17586212D01*
X78111155Y-17786155D01*
X77978000Y-17948405D01*
X77844845Y-17786155D01*
X77601213Y-17586212D01*
X77323256Y-17437641D01*
X77021655Y-17346151D01*
X76786597Y-17323000D01*
X76629403Y-17323000D01*
X76394345Y-17346151D01*
X76092744Y-17437641D01*
X75814787Y-17586212D01*
X75571155Y-17786155D01*
X75438000Y-17948405D01*
X75304845Y-17786155D01*
X75061213Y-17586212D01*
X74783256Y-17437641D01*
X74481655Y-17346151D01*
X74246597Y-17323000D01*
X74089403Y-17323000D01*
X73854345Y-17346151D01*
X73552744Y-17437641D01*
X73274787Y-17586212D01*
X73031155Y-17786155D01*
X72898000Y-17948405D01*
X72764845Y-17786155D01*
X72521213Y-17586212D01*
X72243256Y-17437641D01*
X71941655Y-17346151D01*
X71706597Y-17323000D01*
X71549403Y-17323000D01*
X71314345Y-17346151D01*
X71012744Y-17437641D01*
X70734787Y-17586212D01*
X70491155Y-17786155D01*
X70358000Y-17948405D01*
X70224845Y-17786155D01*
X69981213Y-17586212D01*
X69703256Y-17437641D01*
X69401655Y-17346151D01*
X69166597Y-17323000D01*
X69009403Y-17323000D01*
X68774345Y-17346151D01*
X68472744Y-17437641D01*
X68194787Y-17586212D01*
X67951155Y-17786155D01*
X67751212Y-18029787D01*
X67602641Y-18307744D01*
X67511151Y-18609345D01*
X67480259Y-18923000D01*
X67511151Y-19236655D01*
X67602641Y-19538256D01*
X67751212Y-19816213D01*
X67751850Y-19816991D01*
X65607295Y-19816991D01*
X65611628Y-19773000D01*
X65611628Y-18073000D01*
X65597147Y-17925974D01*
X65554261Y-17784599D01*
X65484619Y-17654307D01*
X65390895Y-17540105D01*
X65276693Y-17446381D01*
X65146401Y-17376739D01*
X65005026Y-17333853D01*
X64858000Y-17319372D01*
X63158000Y-17319372D01*
X63010974Y-17333853D01*
X62869599Y-17376739D01*
X62739307Y-17446381D01*
X62625105Y-17540105D01*
X62531381Y-17654307D01*
X62461739Y-17784599D01*
X62418853Y-17925974D01*
X62415694Y-17958052D01*
X62373350Y-17818464D01*
X62280493Y-17644741D01*
X62186841Y-17530625D01*
X62155529Y-17492471D01*
X62117374Y-17461158D01*
X61864215Y-17208000D01*
X82462275Y-17208000D01*
X83503001Y-18248727D01*
X83503000Y-29296487D01*
X83499010Y-29337000D01*
X83503000Y-29377513D01*
X83503000Y-29377520D01*
X83514938Y-29498727D01*
X83562112Y-29654240D01*
X83638719Y-29797562D01*
X83741815Y-29923185D01*
X83773296Y-29949021D01*
X85434307Y-31610033D01*
X85139479Y-31487911D01*
X84602003Y-31381000D01*
X84053997Y-31381000D01*
X83516521Y-31487911D01*
X83010229Y-31697624D01*
X82554578Y-32002079D01*
X82167079Y-32389578D01*
X81862624Y-32845229D01*
X81652911Y-33351521D01*
X81546000Y-33888997D01*
X81546000Y-34437003D01*
X81652911Y-34974479D01*
X81862624Y-35480771D01*
X82167079Y-35936422D01*
X82554578Y-36323921D01*
X83010229Y-36628376D01*
X83516521Y-36838089D01*
X84053997Y-36945000D01*
X84602003Y-36945000D01*
X85139479Y-36838089D01*
X85645771Y-36628376D01*
X86043001Y-36362957D01*
X86043000Y-59903043D01*
X85645771Y-59637624D01*
X85139479Y-59427911D01*
X84602003Y-59321000D01*
X84053997Y-59321000D01*
X83516521Y-59427911D01*
X83010229Y-59637624D01*
X82554578Y-59942079D01*
X82167079Y-60329578D01*
X81862624Y-60785229D01*
X81652911Y-61291521D01*
X81546000Y-61828997D01*
X81546000Y-62377003D01*
X81652911Y-62914479D01*
X81862624Y-63420771D01*
X82167079Y-63876422D01*
X82554578Y-64263921D01*
X83010229Y-64568376D01*
X83516521Y-64778089D01*
X84053997Y-64885000D01*
X84602003Y-64885000D01*
X85139479Y-64778089D01*
X85645771Y-64568376D01*
X86037928Y-64306346D01*
X83773291Y-66570984D01*
X83741816Y-66596815D01*
X83638720Y-66722437D01*
X83562113Y-66865759D01*
X83514938Y-67021272D01*
X83499010Y-67183000D01*
X83503001Y-67223523D01*
X83503000Y-68898000D01*
X34457957Y-68898000D01*
X34723376Y-68500771D01*
X34933089Y-67994479D01*
X35040000Y-67457003D01*
X35040000Y-66908997D01*
X34933089Y-66371521D01*
X34723376Y-65865229D01*
X34418921Y-65409578D01*
X34031422Y-65022079D01*
X33575771Y-64717624D01*
X33069479Y-64507911D01*
X32532003Y-64401000D01*
X31983997Y-64401000D01*
X31446521Y-64507911D01*
X30940229Y-64717624D01*
X30484578Y-65022079D01*
X30097079Y-65409578D01*
X29792624Y-65865229D01*
X29582911Y-66371521D01*
X29476000Y-66908997D01*
X29476000Y-67457003D01*
X29582911Y-67994479D01*
X29792624Y-68500771D01*
X30058043Y-68898000D01*
X20058074Y-68898000D01*
X19811931Y-17208000D01*
X31328043Y-17208000D01*
X31062624Y-17605229D01*
X31062624Y-17605229D01*
G37*
X31062624Y-17605229D02*
X30852911Y-18111521D01*
X30746000Y-18648997D01*
X30746000Y-19197003D01*
X30852911Y-19734479D01*
X31062624Y-20240771D01*
X31367079Y-20696422D01*
X31754578Y-21083921D01*
X32210229Y-21388376D01*
X32716521Y-21598089D01*
X33253997Y-21705000D01*
X33802003Y-21705000D01*
X34339479Y-21598089D01*
X34845771Y-21388376D01*
X35301422Y-21083921D01*
X35688921Y-20696422D01*
X35993376Y-20240771D01*
X36203089Y-19734479D01*
X36310000Y-19197003D01*
X36310000Y-18648997D01*
X36203089Y-18111521D01*
X35993376Y-17605229D01*
X35727957Y-17208000D01*
X39724657Y-17208000D01*
X39679469Y-17356965D01*
X39660161Y-17552999D01*
X39664999Y-17602119D01*
X39665000Y-21692869D01*
X39660161Y-21741999D01*
X39679469Y-21938033D01*
X39736650Y-22126533D01*
X39779874Y-22207399D01*
X39829508Y-22300257D01*
X39954472Y-22452527D01*
X39992631Y-22483843D01*
X41273787Y-23765000D01*
X36625120Y-23765000D01*
X36576000Y-23760162D01*
X36526880Y-23765000D01*
X36379966Y-23779470D01*
X36191465Y-23836651D01*
X36017742Y-23929508D01*
X35865472Y-24054472D01*
X35834160Y-24092626D01*
X21759637Y-38167151D01*
X21721472Y-38198472D01*
X21596508Y-38350742D01*
X21503652Y-38524465D01*
X21503651Y-38524466D01*
X21446470Y-38712966D01*
X21427162Y-38909000D01*
X21432000Y-38958120D01*
X21432001Y-43929242D01*
X21432000Y-43929252D01*
X21432000Y-43992014D01*
X21208071Y-44141639D01*
X20940639Y-44409071D01*
X20730518Y-44723539D01*
X20585785Y-45072957D01*
X20512000Y-45443897D01*
X20512000Y-45822103D01*
X20585785Y-46193043D01*
X20730518Y-46542461D01*
X20940639Y-46856929D01*
X21208071Y-47124361D01*
X21522539Y-47334482D01*
X21871957Y-47479215D01*
X22242897Y-47553000D01*
X22621103Y-47553000D01*
X22992043Y-47479215D01*
X23341461Y-47334482D01*
X23655929Y-47124361D01*
X23923361Y-46856929D01*
X24133482Y-46542461D01*
X24278215Y-46193043D01*
X24352000Y-45822103D01*
X24352000Y-45443897D01*
X24278215Y-45072957D01*
X24133482Y-44723539D01*
X23923361Y-44409071D01*
X23655929Y-44141639D01*
X23432000Y-43992014D01*
X23432000Y-39323212D01*
X36990214Y-25765000D01*
X41935869Y-25765000D01*
X42709536Y-26538668D01*
X42672000Y-26584405D01*
X42538845Y-26422155D01*
X42295213Y-26222212D01*
X42017256Y-26073641D01*
X41715655Y-25982151D01*
X41480597Y-25959000D01*
X41323403Y-25959000D01*
X41088345Y-25982151D01*
X40786744Y-26073641D01*
X40508787Y-26222212D01*
X40265155Y-26422155D01*
X40065212Y-26665787D01*
X39916641Y-26943744D01*
X39825151Y-27245345D01*
X39794259Y-27559000D01*
X39825151Y-27872655D01*
X39916641Y-28174256D01*
X40065212Y-28452213D01*
X40265155Y-28695845D01*
X40369394Y-28781392D01*
X27885246Y-41265542D01*
X27621103Y-41213000D01*
X27242897Y-41213000D01*
X26871957Y-41286785D01*
X26522539Y-41431518D01*
X26208071Y-41641639D01*
X25940639Y-41909071D01*
X25730518Y-42223539D01*
X25585785Y-42572957D01*
X25512000Y-42943897D01*
X25512000Y-43322103D01*
X25585785Y-43693043D01*
X25730518Y-44042461D01*
X25940639Y-44356929D01*
X26208071Y-44624361D01*
X26522539Y-44834482D01*
X26871957Y-44979215D01*
X27242897Y-45053000D01*
X27621103Y-45053000D01*
X27992043Y-44979215D01*
X28341461Y-44834482D01*
X28655929Y-44624361D01*
X28923361Y-44356929D01*
X29133482Y-44042461D01*
X29278215Y-43693043D01*
X29352000Y-43322103D01*
X29352000Y-42943897D01*
X29299458Y-42679754D01*
X41602960Y-30376254D01*
X45300074Y-34073368D01*
X45331391Y-34111528D01*
X45483661Y-34236492D01*
X45657384Y-34329349D01*
X45845885Y-34386530D01*
X45992799Y-34401000D01*
X45992800Y-34401000D01*
X46041918Y-34405838D01*
X46091036Y-34401000D01*
X47829968Y-34401000D01*
X48022000Y-34593032D01*
X48022001Y-59767870D01*
X48017162Y-59817000D01*
X48036470Y-60013034D01*
X48093651Y-60201534D01*
X48093652Y-60201535D01*
X48186509Y-60375258D01*
X48311473Y-60527528D01*
X48349632Y-60558844D01*
X53428919Y-65638132D01*
X53232744Y-65697641D01*
X52954787Y-65846212D01*
X52811205Y-65964046D01*
X52784619Y-65914307D01*
X52690895Y-65800105D01*
X52576693Y-65706381D01*
X52446401Y-65636739D01*
X52305026Y-65593853D01*
X52158000Y-65579372D01*
X50458000Y-65579372D01*
X50310974Y-65593853D01*
X50169599Y-65636739D01*
X50039307Y-65706381D01*
X49925105Y-65800105D01*
X49831381Y-65914307D01*
X49761739Y-66044599D01*
X49718853Y-66185974D01*
X49704372Y-66333000D01*
X49704372Y-68033000D01*
X49718853Y-68180026D01*
X49761739Y-68321401D01*
X49831381Y-68451693D01*
X49925105Y-68565895D01*
X50039307Y-68659619D01*
X50169599Y-68729261D01*
X50310974Y-68772147D01*
X50458000Y-68786628D01*
X52158000Y-68786628D01*
X52305026Y-68772147D01*
X52446401Y-68729261D01*
X52576693Y-68659619D01*
X52690895Y-68565895D01*
X52784619Y-68451693D01*
X52811205Y-68401954D01*
X52954787Y-68519788D01*
X53232744Y-68668359D01*
X53534345Y-68759849D01*
X53769403Y-68783000D01*
X53926597Y-68783000D01*
X54161655Y-68759849D01*
X54463256Y-68668359D01*
X54741213Y-68519788D01*
X54984845Y-68319845D01*
X55118000Y-68157595D01*
X55251155Y-68319845D01*
X55494787Y-68519788D01*
X55772744Y-68668359D01*
X56074345Y-68759849D01*
X56309403Y-68783000D01*
X56466597Y-68783000D01*
X56701655Y-68759849D01*
X57003256Y-68668359D01*
X57281213Y-68519788D01*
X57524845Y-68319845D01*
X57724788Y-68076213D01*
X57873359Y-67798256D01*
X57964849Y-67496655D01*
X57995741Y-67183000D01*
X62400259Y-67183000D01*
X62431151Y-67496655D01*
X62522641Y-67798256D01*
X62671212Y-68076213D01*
X62871155Y-68319845D01*
X63114787Y-68519788D01*
X63392744Y-68668359D01*
X63694345Y-68759849D01*
X63929403Y-68783000D01*
X64086597Y-68783000D01*
X64321655Y-68759849D01*
X64623256Y-68668359D01*
X64901213Y-68519788D01*
X65144845Y-68319845D01*
X65344788Y-68076213D01*
X65493359Y-67798256D01*
X65584849Y-67496655D01*
X65615741Y-67183000D01*
X65584849Y-66869345D01*
X65493359Y-66567744D01*
X65367886Y-66333000D01*
X67484372Y-66333000D01*
X67484372Y-68033000D01*
X67498853Y-68180026D01*
X67541739Y-68321401D01*
X67611381Y-68451693D01*
X67705105Y-68565895D01*
X67819307Y-68659619D01*
X67949599Y-68729261D01*
X68090974Y-68772147D01*
X68238000Y-68786628D01*
X69938000Y-68786628D01*
X70085026Y-68772147D01*
X70226401Y-68729261D01*
X70356693Y-68659619D01*
X70470895Y-68565895D01*
X70564619Y-68451693D01*
X70591205Y-68401954D01*
X70734787Y-68519788D01*
X71012744Y-68668359D01*
X71314345Y-68759849D01*
X71549403Y-68783000D01*
X71706597Y-68783000D01*
X71941655Y-68759849D01*
X72243256Y-68668359D01*
X72521213Y-68519788D01*
X72764845Y-68319845D01*
X72898000Y-68157595D01*
X73031155Y-68319845D01*
X73274787Y-68519788D01*
X73552744Y-68668359D01*
X73854345Y-68759849D01*
X74089403Y-68783000D01*
X74246597Y-68783000D01*
X74481655Y-68759849D01*
X74783256Y-68668359D01*
X75061213Y-68519788D01*
X75304845Y-68319845D01*
X75438000Y-68157595D01*
X75571155Y-68319845D01*
X75814787Y-68519788D01*
X76092744Y-68668359D01*
X76394345Y-68759849D01*
X76629403Y-68783000D01*
X76786597Y-68783000D01*
X77021655Y-68759849D01*
X77323256Y-68668359D01*
X77601213Y-68519788D01*
X77844845Y-68319845D01*
X77978000Y-68157595D01*
X78111155Y-68319845D01*
X78354787Y-68519788D01*
X78632744Y-68668359D01*
X78934345Y-68759849D01*
X79169403Y-68783000D01*
X79326597Y-68783000D01*
X79561655Y-68759849D01*
X79863256Y-68668359D01*
X80141213Y-68519788D01*
X80384845Y-68319845D01*
X80518000Y-68157595D01*
X80651155Y-68319845D01*
X80894787Y-68519788D01*
X81172744Y-68668359D01*
X81474345Y-68759849D01*
X81709403Y-68783000D01*
X81866597Y-68783000D01*
X82101655Y-68759849D01*
X82403256Y-68668359D01*
X82681213Y-68519788D01*
X82924845Y-68319845D01*
X83124788Y-68076213D01*
X83273359Y-67798256D01*
X83364849Y-67496655D01*
X83395741Y-67183000D01*
X83364849Y-66869345D01*
X83273359Y-66567744D01*
X83124788Y-66289787D01*
X82924845Y-66046155D01*
X82681213Y-65846212D01*
X82403256Y-65697641D01*
X82101655Y-65606151D01*
X81866597Y-65583000D01*
X81709403Y-65583000D01*
X81474345Y-65606151D01*
X81172744Y-65697641D01*
X80894787Y-65846212D01*
X80651155Y-66046155D01*
X80518000Y-66208405D01*
X80384845Y-66046155D01*
X80141213Y-65846212D01*
X79863256Y-65697641D01*
X79561655Y-65606151D01*
X79326597Y-65583000D01*
X79169403Y-65583000D01*
X78934345Y-65606151D01*
X78632744Y-65697641D01*
X78354787Y-65846212D01*
X78111155Y-66046155D01*
X77978000Y-66208405D01*
X77844845Y-66046155D01*
X77601213Y-65846212D01*
X77323256Y-65697641D01*
X77021655Y-65606151D01*
X76786597Y-65583000D01*
X76629403Y-65583000D01*
X76394345Y-65606151D01*
X76092744Y-65697641D01*
X75814787Y-65846212D01*
X75571155Y-66046155D01*
X75438000Y-66208405D01*
X75304845Y-66046155D01*
X75061213Y-65846212D01*
X74783256Y-65697641D01*
X74481655Y-65606151D01*
X74246597Y-65583000D01*
X74089403Y-65583000D01*
X73854345Y-65606151D01*
X73552744Y-65697641D01*
X73274787Y-65846212D01*
X73031155Y-66046155D01*
X72898000Y-66208405D01*
X72764845Y-66046155D01*
X72521213Y-65846212D01*
X72243256Y-65697641D01*
X71941655Y-65606151D01*
X71706597Y-65583000D01*
X71549403Y-65583000D01*
X71314345Y-65606151D01*
X71012744Y-65697641D01*
X70734787Y-65846212D01*
X70591205Y-65964046D01*
X70564619Y-65914307D01*
X70470895Y-65800105D01*
X70356693Y-65706381D01*
X70226401Y-65636739D01*
X70085026Y-65593853D01*
X69938000Y-65579372D01*
X68238000Y-65579372D01*
X68090974Y-65593853D01*
X67949599Y-65636739D01*
X67819307Y-65706381D01*
X67705105Y-65800105D01*
X67611381Y-65914307D01*
X67541739Y-66044599D01*
X67498853Y-66185974D01*
X67484372Y-66333000D01*
X65367886Y-66333000D01*
X65344788Y-66289787D01*
X65144845Y-66046155D01*
X64901213Y-65846212D01*
X64623256Y-65697641D01*
X64321655Y-65606151D01*
X64086597Y-65583000D01*
X63929403Y-65583000D01*
X63694345Y-65606151D01*
X63392744Y-65697641D01*
X63114787Y-65846212D01*
X62871155Y-66046155D01*
X62671212Y-66289787D01*
X62522641Y-66567744D01*
X62431151Y-66869345D01*
X62400259Y-67183000D01*
X57995741Y-67183000D01*
X57964849Y-66869345D01*
X57873359Y-66567744D01*
X57724788Y-66289787D01*
X57524845Y-66046155D01*
X57281213Y-65846212D01*
X57003256Y-65697641D01*
X56701655Y-65606151D01*
X56466597Y-65583000D01*
X56309403Y-65583000D01*
X56211824Y-65592611D01*
X50022000Y-59402788D01*
X50022000Y-34593032D01*
X50225964Y-34389068D01*
X50395592Y-34135200D01*
X50512435Y-33853118D01*
X50572000Y-33553662D01*
X50572000Y-33248338D01*
X50512435Y-32948882D01*
X50395592Y-32666800D01*
X50225964Y-32412932D01*
X50010068Y-32197036D01*
X49756200Y-32027408D01*
X49474118Y-31910565D01*
X49174662Y-31851000D01*
X48869338Y-31851000D01*
X48569882Y-31910565D01*
X48287800Y-32027408D01*
X48033932Y-32197036D01*
X47829968Y-32401000D01*
X46456132Y-32401000D01*
X42634464Y-28579333D01*
X42672000Y-28533595D01*
X42805155Y-28695845D01*
X43048787Y-28895788D01*
X43326744Y-29044359D01*
X43628345Y-29135849D01*
X43863403Y-29159000D01*
X44020597Y-29159000D01*
X44255655Y-29135849D01*
X44557256Y-29044359D01*
X44835213Y-28895788D01*
X45078845Y-28695845D01*
X45212000Y-28533595D01*
X45345155Y-28695845D01*
X45588787Y-28895788D01*
X45866744Y-29044359D01*
X46168345Y-29135849D01*
X46403403Y-29159000D01*
X46560597Y-29159000D01*
X46795655Y-29135849D01*
X47097256Y-29044359D01*
X47375213Y-28895788D01*
X47618845Y-28695845D01*
X47818788Y-28452213D01*
X47967359Y-28174256D01*
X48058849Y-27872655D01*
X48089741Y-27559000D01*
X48058849Y-27245345D01*
X47967359Y-26943744D01*
X47818788Y-26665787D01*
X47618845Y-26422155D01*
X47375213Y-26222212D01*
X47097256Y-26073641D01*
X46795655Y-25982151D01*
X46560597Y-25959000D01*
X46403403Y-25959000D01*
X46305825Y-25968611D01*
X41664999Y-21327787D01*
X41664999Y-20526628D01*
X43015000Y-20526628D01*
X43162026Y-20512147D01*
X43303401Y-20469261D01*
X43433693Y-20399619D01*
X43547895Y-20305895D01*
X43641619Y-20191693D01*
X43668205Y-20141954D01*
X43811787Y-20259788D01*
X44089744Y-20408359D01*
X44391345Y-20499849D01*
X44626403Y-20523000D01*
X44783597Y-20523000D01*
X45018655Y-20499849D01*
X45320256Y-20408359D01*
X45598213Y-20259788D01*
X45841845Y-20059845D01*
X45975000Y-19897595D01*
X46108155Y-20059845D01*
X46351787Y-20259788D01*
X46629744Y-20408359D01*
X46931345Y-20499849D01*
X47166403Y-20523000D01*
X47323597Y-20523000D01*
X47421176Y-20513389D01*
X47422625Y-20514838D01*
X47422631Y-20514843D01*
X52853155Y-25945368D01*
X52884472Y-25983528D01*
X53036742Y-26108492D01*
X53210465Y-26201349D01*
X53234295Y-26208578D01*
X53208787Y-26222212D01*
X52965155Y-26422155D01*
X52832000Y-26584405D01*
X52698845Y-26422155D01*
X52455213Y-26222212D01*
X52177256Y-26073641D01*
X51875655Y-25982151D01*
X51640597Y-25959000D01*
X51483403Y-25959000D01*
X51248345Y-25982151D01*
X50946744Y-26073641D01*
X50668787Y-26222212D01*
X50425155Y-26422155D01*
X50225212Y-26665787D01*
X50076641Y-26943744D01*
X49985151Y-27245345D01*
X49954259Y-27559000D01*
X49985151Y-27872655D01*
X50076641Y-28174256D01*
X50225212Y-28452213D01*
X50425155Y-28695845D01*
X50668787Y-28895788D01*
X50946744Y-29044359D01*
X51248345Y-29135849D01*
X51483403Y-29159000D01*
X51640597Y-29159000D01*
X51802547Y-29143049D01*
X60509254Y-37849757D01*
X60538999Y-37886001D01*
X60575242Y-37915745D01*
X60575245Y-37915748D01*
X60652951Y-37979520D01*
X60683655Y-38004718D01*
X60848692Y-38092932D01*
X61027768Y-38147254D01*
X61167335Y-38161000D01*
X61167345Y-38161000D01*
X61213999Y-38165595D01*
X61260654Y-38161000D01*
X70057346Y-38161000D01*
X70104000Y-38165595D01*
X70150654Y-38161000D01*
X70150665Y-38161000D01*
X70290232Y-38147254D01*
X70469308Y-38092932D01*
X70634345Y-38004718D01*
X70779001Y-37886001D01*
X70808750Y-37849752D01*
X76330757Y-32327746D01*
X76367001Y-32298001D01*
X76449862Y-32197036D01*
X76485717Y-32153346D01*
X76511031Y-32105987D01*
X76573932Y-31988308D01*
X76628254Y-31809232D01*
X76642000Y-31669665D01*
X76642000Y-31669656D01*
X76646595Y-31623001D01*
X76642000Y-31576346D01*
X76642000Y-20523000D01*
X76786597Y-20523000D01*
X77021655Y-20499849D01*
X77323256Y-20408359D01*
X77601213Y-20259788D01*
X77844845Y-20059845D01*
X77978000Y-19897595D01*
X78111155Y-20059845D01*
X78354787Y-20259788D01*
X78632744Y-20408359D01*
X78934345Y-20499849D01*
X79169403Y-20523000D01*
X79326597Y-20523000D01*
X79561655Y-20499849D01*
X79863256Y-20408359D01*
X80141213Y-20259788D01*
X80384845Y-20059845D01*
X80518000Y-19897595D01*
X80651155Y-20059845D01*
X80894787Y-20259788D01*
X81172744Y-20408359D01*
X81474345Y-20499849D01*
X81709403Y-20523000D01*
X81866597Y-20523000D01*
X82101655Y-20499849D01*
X82403256Y-20408359D01*
X82681213Y-20259788D01*
X82924845Y-20059845D01*
X83124788Y-19816213D01*
X83273359Y-19538256D01*
X83364849Y-19236655D01*
X83395741Y-18923000D01*
X83364849Y-18609345D01*
X83273359Y-18307744D01*
X83124788Y-18029787D01*
X82924845Y-17786155D01*
X82681213Y-17586212D01*
X82403256Y-17437641D01*
X82101655Y-17346151D01*
X81866597Y-17323000D01*
X81709403Y-17323000D01*
X81474345Y-17346151D01*
X81172744Y-17437641D01*
X80894787Y-17586212D01*
X80651155Y-17786155D01*
X80518000Y-17948405D01*
X80384845Y-17786155D01*
X80141213Y-17586212D01*
X79863256Y-17437641D01*
X79561655Y-17346151D01*
X79326597Y-17323000D01*
X79169403Y-17323000D01*
X78934345Y-17346151D01*
X78632744Y-17437641D01*
X78354787Y-17586212D01*
X78111155Y-17786155D01*
X77978000Y-17948405D01*
X77844845Y-17786155D01*
X77601213Y-17586212D01*
X77323256Y-17437641D01*
X77021655Y-17346151D01*
X76786597Y-17323000D01*
X76629403Y-17323000D01*
X76394345Y-17346151D01*
X76092744Y-17437641D01*
X75814787Y-17586212D01*
X75571155Y-17786155D01*
X75438000Y-17948405D01*
X75304845Y-17786155D01*
X75061213Y-17586212D01*
X74783256Y-17437641D01*
X74481655Y-17346151D01*
X74246597Y-17323000D01*
X74089403Y-17323000D01*
X73854345Y-17346151D01*
X73552744Y-17437641D01*
X73274787Y-17586212D01*
X73031155Y-17786155D01*
X72898000Y-17948405D01*
X72764845Y-17786155D01*
X72521213Y-17586212D01*
X72243256Y-17437641D01*
X71941655Y-17346151D01*
X71706597Y-17323000D01*
X71549403Y-17323000D01*
X71314345Y-17346151D01*
X71012744Y-17437641D01*
X70734787Y-17586212D01*
X70491155Y-17786155D01*
X70358000Y-17948405D01*
X70224845Y-17786155D01*
X69981213Y-17586212D01*
X69703256Y-17437641D01*
X69401655Y-17346151D01*
X69166597Y-17323000D01*
X69009403Y-17323000D01*
X68774345Y-17346151D01*
X68472744Y-17437641D01*
X68194787Y-17586212D01*
X67951155Y-17786155D01*
X67751212Y-18029787D01*
X67602641Y-18307744D01*
X67511151Y-18609345D01*
X67480259Y-18923000D01*
X67511151Y-19236655D01*
X67602641Y-19538256D01*
X67751212Y-19816213D01*
X67751850Y-19816991D01*
X65607295Y-19816991D01*
X65611628Y-19773000D01*
X65611628Y-18073000D01*
X65597147Y-17925974D01*
X65554261Y-17784599D01*
X65484619Y-17654307D01*
X65390895Y-17540105D01*
X65276693Y-17446381D01*
X65146401Y-17376739D01*
X65005026Y-17333853D01*
X64858000Y-17319372D01*
X63158000Y-17319372D01*
X63010974Y-17333853D01*
X62869599Y-17376739D01*
X62739307Y-17446381D01*
X62625105Y-17540105D01*
X62531381Y-17654307D01*
X62461739Y-17784599D01*
X62418853Y-17925974D01*
X62415694Y-17958052D01*
X62373350Y-17818464D01*
X62280493Y-17644741D01*
X62186841Y-17530625D01*
X62155529Y-17492471D01*
X62117374Y-17461158D01*
X61864215Y-17208000D01*
X82462275Y-17208000D01*
X83503001Y-18248727D01*
X83503000Y-29296487D01*
X83499010Y-29337000D01*
X83503000Y-29377513D01*
X83503000Y-29377520D01*
X83514938Y-29498727D01*
X83562112Y-29654240D01*
X83638719Y-29797562D01*
X83741815Y-29923185D01*
X83773296Y-29949021D01*
X85434307Y-31610033D01*
X85139479Y-31487911D01*
X84602003Y-31381000D01*
X84053997Y-31381000D01*
X83516521Y-31487911D01*
X83010229Y-31697624D01*
X82554578Y-32002079D01*
X82167079Y-32389578D01*
X81862624Y-32845229D01*
X81652911Y-33351521D01*
X81546000Y-33888997D01*
X81546000Y-34437003D01*
X81652911Y-34974479D01*
X81862624Y-35480771D01*
X82167079Y-35936422D01*
X82554578Y-36323921D01*
X83010229Y-36628376D01*
X83516521Y-36838089D01*
X84053997Y-36945000D01*
X84602003Y-36945000D01*
X85139479Y-36838089D01*
X85645771Y-36628376D01*
X86043001Y-36362957D01*
X86043000Y-59903043D01*
X85645771Y-59637624D01*
X85139479Y-59427911D01*
X84602003Y-59321000D01*
X84053997Y-59321000D01*
X83516521Y-59427911D01*
X83010229Y-59637624D01*
X82554578Y-59942079D01*
X82167079Y-60329578D01*
X81862624Y-60785229D01*
X81652911Y-61291521D01*
X81546000Y-61828997D01*
X81546000Y-62377003D01*
X81652911Y-62914479D01*
X81862624Y-63420771D01*
X82167079Y-63876422D01*
X82554578Y-64263921D01*
X83010229Y-64568376D01*
X83516521Y-64778089D01*
X84053997Y-64885000D01*
X84602003Y-64885000D01*
X85139479Y-64778089D01*
X85645771Y-64568376D01*
X86037928Y-64306346D01*
X83773291Y-66570984D01*
X83741816Y-66596815D01*
X83638720Y-66722437D01*
X83562113Y-66865759D01*
X83514938Y-67021272D01*
X83499010Y-67183000D01*
X83503001Y-67223523D01*
X83503000Y-68898000D01*
X34457957Y-68898000D01*
X34723376Y-68500771D01*
X34933089Y-67994479D01*
X35040000Y-67457003D01*
X35040000Y-66908997D01*
X34933089Y-66371521D01*
X34723376Y-65865229D01*
X34418921Y-65409578D01*
X34031422Y-65022079D01*
X33575771Y-64717624D01*
X33069479Y-64507911D01*
X32532003Y-64401000D01*
X31983997Y-64401000D01*
X31446521Y-64507911D01*
X30940229Y-64717624D01*
X30484578Y-65022079D01*
X30097079Y-65409578D01*
X29792624Y-65865229D01*
X29582911Y-66371521D01*
X29476000Y-66908997D01*
X29476000Y-67457003D01*
X29582911Y-67994479D01*
X29792624Y-68500771D01*
X30058043Y-68898000D01*
X20058074Y-68898000D01*
X19811931Y-17208000D01*
X31328043Y-17208000D01*
X31062624Y-17605229D01*
M02*
