G04 #@! TF.GenerationSoftware,KiCad,Pcbnew,5.1.2-f72e74a~84~ubuntu16.04.1*
G04 #@! TF.CreationDate,2019-07-02T14:45:40+02:00*
G04 #@! TF.ProjectId,Ethernet_Display,45746865-726e-4657-945f-446973706c61,rev?*
G04 #@! TF.SameCoordinates,Original*
G04 #@! TF.FileFunction,Copper,L1,Top*
G04 #@! TF.FilePolarity,Positive*
%FSLAX46Y46*%
G04 Gerber Fmt 4.6, Leading zero omitted, Abs format (unit mm)*
G04 Created by KiCad (PCBNEW 5.1.2-f72e74a~84~ubuntu16.04.1) date 2019-07-02 14:45:40*
%MOMM*%
%LPD*%
G04 APERTURE LIST*
%ADD10O,1.400000X1.400000*%
%ADD11C,1.400000*%
%ADD12C,2.340000*%
%ADD13O,1.700000X1.700000*%
%ADD14R,1.700000X1.700000*%
%ADD15C,4.064000*%
G04 APERTURE END LIST*
D10*
X146304000Y-87249000D03*
D11*
X141224000Y-87249000D03*
D12*
X120142000Y-104775000D03*
X115142000Y-102275000D03*
X120142000Y-99775000D03*
D13*
X164846000Y-82169000D03*
X162306000Y-82169000D03*
X159766000Y-82169000D03*
X157226000Y-82169000D03*
X154686000Y-82169000D03*
X152146000Y-82169000D03*
X149606000Y-82169000D03*
X147066000Y-82169000D03*
X144526000Y-82169000D03*
X141986000Y-82169000D03*
X139446000Y-82169000D03*
X136906000Y-82169000D03*
X134366000Y-82169000D03*
X131826000Y-82169000D03*
X129286000Y-82169000D03*
D14*
X126746000Y-82169000D03*
D13*
X152655000Y-75565000D03*
X150115000Y-75565000D03*
X147575000Y-75565000D03*
X145035000Y-75565000D03*
X142495000Y-75565000D03*
X139955000Y-75565000D03*
X137415000Y-75565000D03*
D14*
X134875000Y-75565000D03*
D13*
X174498000Y-75565000D03*
X171958000Y-75565000D03*
X169418000Y-75565000D03*
X166878000Y-75565000D03*
X164338000Y-75565000D03*
X161798000Y-75565000D03*
X159258000Y-75565000D03*
D14*
X156718000Y-75565000D03*
D13*
X174498000Y-123825000D03*
X171958000Y-123825000D03*
X169418000Y-123825000D03*
X166878000Y-123825000D03*
X164338000Y-123825000D03*
D14*
X161798000Y-123825000D03*
D13*
X156718000Y-123825000D03*
X154178000Y-123825000D03*
X151638000Y-123825000D03*
X149098000Y-123825000D03*
X146558000Y-123825000D03*
D14*
X144018000Y-123825000D03*
D15*
X124968000Y-123825000D03*
X177038000Y-118745000D03*
X126238000Y-75565000D03*
X177038000Y-90805000D03*
M02*
