M48
; DRILL file {KiCad 5.1.2-f72e74a~84~ubuntu16.04.1} date Die 02 Jul 2019 20:42:10 CEST
; FORMAT={-:-/ absolute / metric / decimal}
; #@! TF.CreationDate,2019-07-02T20:42:10+02:00
; #@! TF.GenerationSoftware,Kicad,Pcbnew,5.1.2-f72e74a~84~ubuntu16.04.1
; #@! TF.FileFunction,Plated,1,2,PTH
FMAT,2
METRIC
T1C0.800
T2C1.000
T3C1.300
T4C3.048
%
G90
G05
T1
X49.022Y-33.401
X61.722Y-33.401
T2
X51.308Y-67.183
X53.848Y-67.183
X56.388Y-67.183
X58.928Y-67.183
X61.468Y-67.183
X64.008Y-67.183
X42.165Y-18.923
X44.705Y-18.923
X47.245Y-18.923
X49.785Y-18.923
X52.325Y-18.923
X54.865Y-18.923
X57.405Y-18.923
X59.945Y-18.923
X69.088Y-67.183
X71.628Y-67.183
X74.168Y-67.183
X76.708Y-67.183
X79.248Y-67.183
X81.788Y-67.183
X38.862Y-27.559
X41.402Y-27.559
X43.942Y-27.559
X46.482Y-27.559
X49.022Y-27.559
X51.562Y-27.559
X54.102Y-27.559
X56.642Y-27.559
X59.182Y-27.559
X61.722Y-27.559
X64.262Y-27.559
X66.802Y-27.559
X69.342Y-27.559
X71.882Y-27.559
X74.422Y-27.559
X76.962Y-27.559
X64.008Y-18.923
X66.548Y-18.923
X69.088Y-18.923
X71.628Y-18.923
X74.168Y-18.923
X76.708Y-18.923
X79.248Y-18.923
X81.788Y-18.923
T3
X22.432Y-45.633
X27.432Y-43.133
X27.432Y-48.133
T4
X33.528Y-18.923
X84.328Y-62.103
X32.258Y-67.183
X84.328Y-34.163
T0
M30
