  0
SECTION
  2
HEADER
  9
$ANGBASE
  50
0.0
  9
$ANGDIR
  70
  1
  9
$MEASUREMENT
  70
0
  0
ENDSEC
  0
SECTION
  2
TABLES
  0
TABLE
  2
LTYPE
  70
4
  0
LTYPE
  5
40F
  2
CONTINUOUS
  70
0
  3
Solid line
  72
65
  73
0
  40
0.0
  0
LTYPE
  5
410
  2
DASHDOT
 70
0
  3
Dash Dot ____ _ ____ _
 72
65
 73
4
 40
2.0
 49
1.25
 49
-0.25
 49
0.25
 49
-0.25
  0
LTYPE
  5
411
  2
DASHED
 70
0
  3
Dashed __ __ __ __ __
 72
65
 73
2
 40
0.75
 49
0.5
 49
-0.25
  0
LTYPE
  5
43B
  2
DOTTED
 70
0
  3
Dotted .  .  .  .
 72
65
 73
2
 40
0.2
 49
0.0
 49
-0.2
  0
ENDTAB
  0
TABLE
  2
STYLE
  70
4
  0
STYLE
  2
KICAD
  70
0
  40
0
  41
1
  42
1
  50
0
  71
0
  3
isocp.shx
  0
STYLE
  2
KICADB
  70
0
  40
0
  41
1
  42
1
  50
0
  71
0
  3
isocp.shx
  0
STYLE
  2
KICADI
  70
0
  40
0
  41
1
  42
1
  50
15
  71
0
  3
isocp.shx
  0
STYLE
  2
KICADBI
  70
0
  40
0
  41
1
  42
1
  50
15
  71
0
  3
isocp.shx
  0
ENDTAB
  0
TABLE
  2
LAYER
  70
30
  0
LAYER
  2
BLACK
  70
0
  62
7
  6
CONTINUOUS
  0
LAYER
  2
GRAY1
  70
0
  62
251
  6
CONTINUOUS
  0
LAYER
  2
GRAY2
  70
0
  62
8
  6
CONTINUOUS
  0
LAYER
  2
GRAY3
  70
0
  62
9
  6
CONTINUOUS
  0
LAYER
  2
WHITE
  70
0
  62
7
  6
CONTINUOUS
  0
LAYER
  2
LYELLOW
  70
0
  62
51
  6
CONTINUOUS
  0
LAYER
  2
BLUE1
  70
0
  62
178
  6
CONTINUOUS
  0
LAYER
  2
GREEN1
  70
0
  62
98
  6
CONTINUOUS
  0
LAYER
  2
CYAN1
  70
0
  62
138
  6
CONTINUOUS
  0
LAYER
  2
RED1
  70
0
  62
18
  6
CONTINUOUS
  0
LAYER
  2
MAGENTA1
  70
0
  62
228
  6
CONTINUOUS
  0
LAYER
  2
BROWN1
  70
0
  62
58
  6
CONTINUOUS
  0
LAYER
  2
BLUE2
  70
0
  62
5
  6
CONTINUOUS
  0
LAYER
  2
GREEN2
  70
0
  62
3
  6
CONTINUOUS
  0
LAYER
  2
CYAN2
  70
0
  62
4
  6
CONTINUOUS
  0
LAYER
  2
RED2
  70
0
  62
1
  6
CONTINUOUS
  0
LAYER
  2
MAGENTA2
  70
0
  62
6
  6
CONTINUOUS
  0
LAYER
  2
BROWN2
  70
0
  62
54
  6
CONTINUOUS
  0
LAYER
  2
BLUE3
  70
0
  62
171
  6
CONTINUOUS
  0
LAYER
  2
GREEN3
  70
0
  62
91
  6
CONTINUOUS
  0
LAYER
  2
CYAN3
  70
0
  62
131
  6
CONTINUOUS
  0
LAYER
  2
RED3
  70
0
  62
11
  6
CONTINUOUS
  0
LAYER
  2
MAGENTA3
  70
0
  62
221
  6
CONTINUOUS
  0
LAYER
  2
YELLOW3
  70
0
  62
2
  6
CONTINUOUS
  0
LAYER
  2
BLUE4
  70
0
  62
5
  6
CONTINUOUS
  0
LAYER
  2
GREEN4
  70
0
  62
3
  6
CONTINUOUS
  0
LAYER
  2
CYAN4
  70
0
  62
4
  6
CONTINUOUS
  0
LAYER
  2
RED4
  70
0
  62
1
  6
CONTINUOUS
  0
LAYER
  2
MAGENTA4
  70
0
  62
6
  6
CONTINUOUS
  0
LAYER
  2
YELLOW4
  70
0
  62
2
  6
CONTINUOUS
  0
ENDTAB
  0
ENDSEC
  0
SECTION
  2
ENTITIES
0
LINE
8
BLACK
6
CONTINUOUS
10
64.5322
20
53.4133
11
64.542
21
53.4116
0
LINE
8
BLACK
6
CONTINUOUS
10
64.542
20
53.4116
11
64.545
21
53.4099
0
LINE
8
BLACK
6
CONTINUOUS
10
64.545
20
53.4099
11
64.5482
21
53.409
0
LINE
8
BLACK
6
CONTINUOUS
10
64.5482
20
53.409
11
64.5563
21
53.4033
0
LINE
8
BLACK
6
CONTINUOUS
10
64.5563
20
53.4033
11
64.565
21
53.3983
0
LINE
8
BLACK
6
CONTINUOUS
10
64.565
20
53.3983
11
64.5713
21
53.3907
0
LINE
8
BLACK
6
CONTINUOUS
10
64.5713
20
53.3907
11
66.0907
21
51.8713
0
LINE
8
BLACK
6
CONTINUOUS
10
66.0907
20
51.8713
11
66.0983
21
51.865
0
LINE
8
BLACK
6
CONTINUOUS
10
66.0983
20
51.865
11
66.1033
21
51.8563
0
LINE
8
BLACK
6
CONTINUOUS
10
66.1033
20
51.8563
11
66.109
21
51.8482
0
LINE
8
BLACK
6
CONTINUOUS
10
66.109
20
51.8482
11
66.1099
21
51.8449
0
LINE
8
BLACK
6
CONTINUOUS
10
66.1099
20
51.8449
11
66.1116
21
51.842
0
LINE
8
BLACK
6
CONTINUOUS
10
66.1116
20
51.842
11
66.1133
21
51.8322
0
LINE
8
BLACK
6
CONTINUOUS
10
66.1133
20
51.8322
11
66.1159
21
51.8226
0
LINE
8
BLACK
6
CONTINUOUS
10
66.1159
20
51.8226
11
66.115
21
51.8128
0
LINE
8
BLACK
6
CONTINUOUS
10
66.115
20
51.8128
11
66.115
21
40.4171
0
LINE
8
BLACK
6
CONTINUOUS
10
66.115
20
40.4171
11
68.6307
21
37.9013
0
LINE
8
BLACK
6
CONTINUOUS
10
68.6307
20
37.9013
11
68.6383
21
37.895
0
LINE
8
BLACK
6
CONTINUOUS
10
68.6383
20
37.895
11
68.6433
21
37.8863
0
LINE
8
BLACK
6
CONTINUOUS
10
68.6433
20
37.8863
11
68.649
21
37.8782
0
LINE
8
BLACK
6
CONTINUOUS
10
68.649
20
37.8782
11
68.6499
21
37.875
0
LINE
8
BLACK
6
CONTINUOUS
10
68.6499
20
37.875
11
68.6516
21
37.872
0
LINE
8
BLACK
6
CONTINUOUS
10
68.6516
20
37.872
11
68.6533
21
37.8622
0
LINE
8
BLACK
6
CONTINUOUS
10
68.6533
20
37.8622
11
68.6559
21
37.8526
0
LINE
8
BLACK
6
CONTINUOUS
10
68.6559
20
37.8526
11
68.655
21
37.8427
0
LINE
8
BLACK
6
CONTINUOUS
10
68.655
20
37.8427
11
68.655
21
5.08325
0
LINE
8
BLACK
6
CONTINUOUS
10
68.655
20
5.08325
11
68.6559
21
5.07336
0
LINE
8
BLACK
6
CONTINUOUS
10
68.6559
20
5.07336
11
68.6533
21
5.06376
0
LINE
8
BLACK
6
CONTINUOUS
10
68.6533
20
5.06376
11
68.6516
21
5.05395
0
LINE
8
BLACK
6
CONTINUOUS
10
68.6516
20
5.05395
11
68.6499
21
5.05105
0
LINE
8
BLACK
6
CONTINUOUS
10
68.6499
20
5.05105
11
68.649
21
5.04781
0
LINE
8
BLACK
6
CONTINUOUS
10
68.649
20
5.04781
11
68.6433
21
5.03967
0
LINE
8
BLACK
6
CONTINUOUS
10
68.6433
20
5.03967
11
68.6383
21
5.03105
0
LINE
8
BLACK
6
CONTINUOUS
10
68.6383
20
5.03105
11
68.6307
21
5.02466
0
LINE
8
BLACK
6
CONTINUOUS
10
68.6307
20
5.02466
11
66.115
21
2.50893
0
LINE
8
BLACK
6
CONTINUOUS
10
66.115
20
2.50893
11
66.115
21
-0.006556
0
LINE
8
BLACK
6
CONTINUOUS
10
66.115
20
-0.006556
11
66.115
21
-0.006562
0
LINE
8
BLACK
6
CONTINUOUS
10
66.115
20
-0.006562
11
66.115
21
-0.013224
0
LINE
8
BLACK
6
CONTINUOUS
10
66.115
20
-0.013224
11
66.1127
21
-0.019485
0
LINE
8
BLACK
6
CONTINUOUS
10
66.1127
20
-0.019485
11
66.1116
21
-0.026047
0
LINE
8
BLACK
6
CONTINUOUS
10
66.1116
20
-0.026047
11
66.1082
21
-0.031817
0
LINE
8
BLACK
6
CONTINUOUS
10
66.1082
20
-0.031817
11
66.106
21
-0.038078
0
LINE
8
BLACK
6
CONTINUOUS
10
66.106
20
-0.038078
11
66.1017
21
-0.043182
0
LINE
8
BLACK
6
CONTINUOUS
10
66.1017
20
-0.043182
11
66.0983
21
-0.048952
0
LINE
8
BLACK
6
CONTINUOUS
10
66.0983
20
-0.048952
11
66.0932
21
-0.053234
0
LINE
8
BLACK
6
CONTINUOUS
10
66.0932
20
-0.053234
11
66.089
21
-0.058339
0
LINE
8
BLACK
6
CONTINUOUS
10
66.089
20
-0.058339
11
66.0832
21
-0.061672
0
LINE
8
BLACK
6
CONTINUOUS
10
66.0832
20
-0.061672
11
66.0781
21
-0.065953
0
LINE
8
BLACK
6
CONTINUOUS
10
66.0781
20
-0.065953
11
66.0718
21
-0.068231
0
LINE
8
BLACK
6
CONTINUOUS
10
66.0718
20
-0.068231
11
66.066
21
-0.071563
0
LINE
8
BLACK
6
CONTINUOUS
10
66.066
20
-0.071563
11
66.0595
21
-0.07272
0
LINE
8
BLACK
6
CONTINUOUS
10
66.0595
20
-0.07272
11
66.0532
21
-0.074999
0
LINE
8
BLACK
6
CONTINUOUS
10
66.0532
20
-0.074999
11
66.0466
21
-0.074999
0
LINE
8
BLACK
6
CONTINUOUS
10
66.0466
20
-0.074999
11
66.0466
21
-0.075
0
LINE
8
BLACK
6
CONTINUOUS
10
66.0466
20
-0.075
11
17.2654
21
-0.075
0
LINE
8
BLACK
6
CONTINUOUS
10
17.2654
20
-0.075
11
17.2654
21
-0.074999
0
LINE
8
BLACK
6
CONTINUOUS
10
17.2654
20
-0.074999
11
17.2588
21
-0.074999
0
LINE
8
BLACK
6
CONTINUOUS
10
17.2588
20
-0.074999
11
17.2525
21
-0.07272
0
LINE
8
BLACK
6
CONTINUOUS
10
17.2525
20
-0.07272
11
17.246
21
-0.071563
0
LINE
8
BLACK
6
CONTINUOUS
10
17.246
20
-0.071563
11
17.2402
21
-0.068231
0
LINE
8
BLACK
6
CONTINUOUS
10
17.2402
20
-0.068231
11
17.2339
21
-0.065953
0
LINE
8
BLACK
6
CONTINUOUS
10
17.2339
20
-0.065953
11
17.2288
21
-0.061672
0
LINE
8
BLACK
6
CONTINUOUS
10
17.2288
20
-0.061672
11
17.223
21
-0.058339
0
LINE
8
BLACK
6
CONTINUOUS
10
17.223
20
-0.058339
11
17.2188
21
-0.053232
0
LINE
8
BLACK
6
CONTINUOUS
10
17.2188
20
-0.053232
11
17.2137
21
-0.048952
0
LINE
8
BLACK
6
CONTINUOUS
10
17.2137
20
-0.048952
11
17.2103
21
-0.043186
0
LINE
8
BLACK
6
CONTINUOUS
10
17.2103
20
-0.043186
11
17.206
21
-0.038078
0
LINE
8
BLACK
6
CONTINUOUS
10
17.206
20
-0.038078
11
17.2038
21
-0.031812
0
LINE
8
BLACK
6
CONTINUOUS
10
17.2038
20
-0.031812
11
17.2004
21
-0.026047
0
LINE
8
BLACK
6
CONTINUOUS
10
17.2004
20
-0.026047
11
17.1993
21
-0.019491
0
LINE
8
BLACK
6
CONTINUOUS
10
17.1993
20
-0.019491
11
17.197
21
-0.013224
0
LINE
8
BLACK
6
CONTINUOUS
10
17.197
20
-0.013224
11
17.197
21
0.013224
0
LINE
8
BLACK
6
CONTINUOUS
10
17.197
20
0.013224
11
17.197
21
15.673
0
LINE
8
BLACK
6
CONTINUOUS
10
17.197
20
15.673
11
1.51744
21
15.673
0
LINE
8
BLACK
6
CONTINUOUS
10
1.51744
20
15.673
11
1.51744
21
15.673
0
LINE
8
BLACK
6
CONTINUOUS
10
1.51744
20
15.673
11
1.51078
21
15.673
0
LINE
8
BLACK
6
CONTINUOUS
10
1.51078
20
15.673
11
1.50452
21
15.6753
0
LINE
8
BLACK
6
CONTINUOUS
10
1.50452
20
15.6753
11
1.49795
21
15.6764
0
LINE
8
BLACK
6
CONTINUOUS
10
1.49795
20
15.6764
11
1.49218
21
15.6798
0
LINE
8
BLACK
6
CONTINUOUS
10
1.49218
20
15.6798
11
1.48592
21
15.682
0
LINE
8
BLACK
6
CONTINUOUS
10
1.48592
20
15.682
11
1.48082
21
15.6863
0
LINE
8
BLACK
6
CONTINUOUS
10
1.48082
20
15.6863
11
1.47505
21
15.6897
0
LINE
8
BLACK
6
CONTINUOUS
10
1.47505
20
15.6897
11
1.47076
21
15.6948
0
LINE
8
BLACK
6
CONTINUOUS
10
1.47076
20
15.6948
11
1.46566
21
15.699
0
LINE
8
BLACK
6
CONTINUOUS
10
1.46566
20
15.699
11
1.46233
21
15.7048
0
LINE
8
BLACK
6
CONTINUOUS
10
1.46233
20
15.7048
11
1.45805
21
15.7099
0
LINE
8
BLACK
6
CONTINUOUS
10
1.45805
20
15.7099
11
1.45577
21
15.7162
0
LINE
8
BLACK
6
CONTINUOUS
10
1.45577
20
15.7162
11
1.45244
21
15.722
0
LINE
8
BLACK
6
CONTINUOUS
10
1.45244
20
15.722
11
1.45128
21
15.7285
0
LINE
8
BLACK
6
CONTINUOUS
10
1.45128
20
15.7285
11
1.449
21
15.7348
0
LINE
8
BLACK
6
CONTINUOUS
10
1.449
20
15.7348
11
1.449
21
15.7612
0
LINE
8
BLACK
6
CONTINUOUS
10
1.449
20
15.7612
11
1.449
21
30.4866
0
LINE
8
BLACK
6
CONTINUOUS
10
1.449
20
30.4866
11
1.449
21
30.4866
0
LINE
8
BLACK
6
CONTINUOUS
10
1.449
20
30.4866
11
1.449
21
30.4932
0
LINE
8
BLACK
6
CONTINUOUS
10
1.449
20
30.4932
11
1.45128
21
30.4995
0
LINE
8
BLACK
6
CONTINUOUS
10
1.45128
20
30.4995
11
1.45244
21
30.506
0
LINE
8
BLACK
6
CONTINUOUS
10
1.45244
20
30.506
11
1.45577
21
30.5118
0
LINE
8
BLACK
6
CONTINUOUS
10
1.45577
20
30.5118
11
1.45805
21
30.5181
0
LINE
8
BLACK
6
CONTINUOUS
10
1.45805
20
30.5181
11
1.46233
21
30.5232
0
LINE
8
BLACK
6
CONTINUOUS
10
1.46233
20
30.5232
11
1.46566
21
30.529
0
LINE
8
BLACK
6
CONTINUOUS
10
1.46566
20
30.529
11
1.47076
21
30.5332
0
LINE
8
BLACK
6
CONTINUOUS
10
1.47076
20
30.5332
11
1.47505
21
30.5383
0
LINE
8
BLACK
6
CONTINUOUS
10
1.47505
20
30.5383
11
1.48082
21
30.5417
0
LINE
8
BLACK
6
CONTINUOUS
10
1.48082
20
30.5417
11
1.48592
21
30.546
0
LINE
8
BLACK
6
CONTINUOUS
10
1.48592
20
30.546
11
1.49218
21
30.5482
0
LINE
8
BLACK
6
CONTINUOUS
10
1.49218
20
30.5482
11
1.49795
21
30.5516
0
LINE
8
BLACK
6
CONTINUOUS
10
1.49795
20
30.5516
11
1.50451
21
30.5527
0
LINE
8
BLACK
6
CONTINUOUS
10
1.50451
20
30.5527
11
1.51078
21
30.555
0
LINE
8
BLACK
6
CONTINUOUS
10
1.51078
20
30.555
11
1.51744
21
30.555
0
LINE
8
BLACK
6
CONTINUOUS
10
1.51744
20
30.555
11
1.51744
21
30.555
0
LINE
8
BLACK
6
CONTINUOUS
10
1.51744
20
30.555
11
17.959
21
30.555
0
LINE
8
BLACK
6
CONTINUOUS
10
17.959
20
30.555
11
17.959
21
53.3466
0
LINE
8
BLACK
6
CONTINUOUS
10
17.959
20
53.3466
11
17.959
21
53.3466
0
LINE
8
BLACK
6
CONTINUOUS
10
17.959
20
53.3466
11
17.959
21
53.3532
0
LINE
8
BLACK
6
CONTINUOUS
10
17.959
20
53.3532
11
17.9613
21
53.3595
0
LINE
8
BLACK
6
CONTINUOUS
10
17.9613
20
53.3595
11
17.9624
21
53.366
0
LINE
8
BLACK
6
CONTINUOUS
10
17.9624
20
53.366
11
17.9658
21
53.3718
0
LINE
8
BLACK
6
CONTINUOUS
10
17.9658
20
53.3718
11
17.968
21
53.3781
0
LINE
8
BLACK
6
CONTINUOUS
10
17.968
20
53.3781
11
17.9723
21
53.3832
0
LINE
8
BLACK
6
CONTINUOUS
10
17.9723
20
53.3832
11
17.9757
21
53.389
0
LINE
8
BLACK
6
CONTINUOUS
10
17.9757
20
53.389
11
17.9808
21
53.3932
0
LINE
8
BLACK
6
CONTINUOUS
10
17.9808
20
53.3932
11
17.985
21
53.3983
0
LINE
8
BLACK
6
CONTINUOUS
10
17.985
20
53.3983
11
17.9908
21
53.4017
0
LINE
8
BLACK
6
CONTINUOUS
10
17.9908
20
53.4017
11
17.9959
21
53.406
0
LINE
8
BLACK
6
CONTINUOUS
10
17.9959
20
53.406
11
18.0022
21
53.4082
0
LINE
8
BLACK
6
CONTINUOUS
10
18.0022
20
53.4082
11
18.008
21
53.4116
0
LINE
8
BLACK
6
CONTINUOUS
10
18.008
20
53.4116
11
18.0145
21
53.4127
0
LINE
8
BLACK
6
CONTINUOUS
10
18.0145
20
53.4127
11
18.0208
21
53.415
0
LINE
8
BLACK
6
CONTINUOUS
10
18.0208
20
53.415
11
18.0274
21
53.415
0
LINE
8
BLACK
6
CONTINUOUS
10
18.0274
20
53.415
11
18.0274
21
53.415
0
LINE
8
BLACK
6
CONTINUOUS
10
18.0274
20
53.415
11
64.5127
21
53.415
0
LINE
8
BLACK
6
CONTINUOUS
10
64.5127
20
53.415
11
64.5226
21
53.4159
0
LINE
8
BLACK
6
CONTINUOUS
10
64.5226
20
53.4159
11
64.5322
21
53.4133
0
LINE
8
BLACK
6
CONTINUOUS
10
18.109
20
53.265
11
18.109
21
30.4734
0
LINE
8
BLACK
6
CONTINUOUS
10
18.109
20
30.4734
11
18.109
21
30.4734
0
LINE
8
BLACK
6
CONTINUOUS
10
18.109
20
30.4734
11
18.109
21
30.4668
0
LINE
8
BLACK
6
CONTINUOUS
10
18.109
20
30.4668
11
18.1067
21
30.4605
0
LINE
8
BLACK
6
CONTINUOUS
10
18.1067
20
30.4605
11
18.1056
21
30.454
0
LINE
8
BLACK
6
CONTINUOUS
10
18.1056
20
30.454
11
18.1022
21
30.4482
0
LINE
8
BLACK
6
CONTINUOUS
10
18.1022
20
30.4482
11
18.1
21
30.4419
0
LINE
8
BLACK
6
CONTINUOUS
10
18.1
20
30.4419
11
18.0957
21
30.4368
0
LINE
8
BLACK
6
CONTINUOUS
10
18.0957
20
30.4368
11
18.0923
21
30.431
0
LINE
8
BLACK
6
CONTINUOUS
10
18.0923
20
30.431
11
18.0872
21
30.4268
0
LINE
8
BLACK
6
CONTINUOUS
10
18.0872
20
30.4268
11
18.083
21
30.4217
0
LINE
8
BLACK
6
CONTINUOUS
10
18.083
20
30.4217
11
18.0772
21
30.4183
0
LINE
8
BLACK
6
CONTINUOUS
10
18.0772
20
30.4183
11
18.0721
21
30.414
0
LINE
8
BLACK
6
CONTINUOUS
10
18.0721
20
30.414
11
18.0658
21
30.4118
0
LINE
8
BLACK
6
CONTINUOUS
10
18.0658
20
30.4118
11
18.06
21
30.4084
0
LINE
8
BLACK
6
CONTINUOUS
10
18.06
20
30.4084
11
18.0535
21
30.4073
0
LINE
8
BLACK
6
CONTINUOUS
10
18.0535
20
30.4073
11
18.0472
21
30.405
0
LINE
8
BLACK
6
CONTINUOUS
10
18.0472
20
30.405
11
18.0406
21
30.405
0
LINE
8
BLACK
6
CONTINUOUS
10
18.0406
20
30.405
11
18.0406
21
30.405
0
LINE
8
BLACK
6
CONTINUOUS
10
18.0406
20
30.405
11
1.599
21
30.405
0
LINE
8
BLACK
6
CONTINUOUS
10
1.599
20
30.405
11
1.599
21
15.823
0
LINE
8
BLACK
6
CONTINUOUS
10
1.599
20
15.823
11
17.2786
21
15.823
0
LINE
8
BLACK
6
CONTINUOUS
10
17.2786
20
15.823
11
17.2786
21
15.823
0
LINE
8
BLACK
6
CONTINUOUS
10
17.2786
20
15.823
11
17.2852
21
15.823
0
LINE
8
BLACK
6
CONTINUOUS
10
17.2852
20
15.823
11
17.2915
21
15.8207
0
LINE
8
BLACK
6
CONTINUOUS
10
17.2915
20
15.8207
11
17.298
21
15.8196
0
LINE
8
BLACK
6
CONTINUOUS
10
17.298
20
15.8196
11
17.3038
21
15.8162
0
LINE
8
BLACK
6
CONTINUOUS
10
17.3038
20
15.8162
11
17.3101
21
15.814
0
LINE
8
BLACK
6
CONTINUOUS
10
17.3101
20
15.814
11
17.3152
21
15.8097
0
LINE
8
BLACK
6
CONTINUOUS
10
17.3152
20
15.8097
11
17.321
21
15.8063
0
LINE
8
BLACK
6
CONTINUOUS
10
17.321
20
15.8063
11
17.3252
21
15.8012
0
LINE
8
BLACK
6
CONTINUOUS
10
17.3252
20
15.8012
11
17.3303
21
15.797
0
LINE
8
BLACK
6
CONTINUOUS
10
17.3303
20
15.797
11
17.3337
21
15.7912
0
LINE
8
BLACK
6
CONTINUOUS
10
17.3337
20
15.7912
11
17.338
21
15.7861
0
LINE
8
BLACK
6
CONTINUOUS
10
17.338
20
15.7861
11
17.3402
21
15.7798
0
LINE
8
BLACK
6
CONTINUOUS
10
17.3402
20
15.7798
11
17.3436
21
15.774
0
LINE
8
BLACK
6
CONTINUOUS
10
17.3436
20
15.774
11
17.3447
21
15.7675
0
LINE
8
BLACK
6
CONTINUOUS
10
17.3447
20
15.7675
11
17.347
21
15.7612
0
LINE
8
BLACK
6
CONTINUOUS
10
17.347
20
15.7612
11
17.347
21
15.7546
0
LINE
8
BLACK
6
CONTINUOUS
10
17.347
20
15.7546
11
17.347
21
15.7546
0
LINE
8
BLACK
6
CONTINUOUS
10
17.347
20
15.7546
11
17.347
21
0.075
0
LINE
8
BLACK
6
CONTINUOUS
10
17.347
20
0.075
11
65.965
21
0.075
0
LINE
8
BLACK
6
CONTINUOUS
10
65.965
20
0.075
11
65.965
21
2.53673
0
LINE
8
BLACK
6
CONTINUOUS
10
65.965
20
2.53673
11
65.9641
21
2.54664
0
LINE
8
BLACK
6
CONTINUOUS
10
65.9641
20
2.54664
11
65.9667
21
2.55625
0
LINE
8
BLACK
6
CONTINUOUS
10
65.9667
20
2.55625
11
65.9684
21
2.56605
0
LINE
8
BLACK
6
CONTINUOUS
10
65.9684
20
2.56605
11
65.9701
21
2.56895
0
LINE
8
BLACK
6
CONTINUOUS
10
65.9701
20
2.56895
11
65.971
21
2.57218
0
LINE
8
BLACK
6
CONTINUOUS
10
65.971
20
2.57218
11
65.9767
21
2.58033
0
LINE
8
BLACK
6
CONTINUOUS
10
65.9767
20
2.58033
11
65.9817
21
2.58895
0
LINE
8
BLACK
6
CONTINUOUS
10
65.9817
20
2.58895
11
65.9893
21
2.59534
0
LINE
8
BLACK
6
CONTINUOUS
10
65.9893
20
2.59534
11
68.505
21
5.11107
0
LINE
8
BLACK
6
CONTINUOUS
10
68.505
20
5.11107
11
68.505
21
37.8149
0
LINE
8
BLACK
6
CONTINUOUS
10
68.505
20
37.8149
11
65.9893
21
40.3307
0
LINE
8
BLACK
6
CONTINUOUS
10
65.9893
20
40.3307
11
65.9817
21
40.337
0
LINE
8
BLACK
6
CONTINUOUS
10
65.9817
20
40.337
11
65.9767
21
40.3457
0
LINE
8
BLACK
6
CONTINUOUS
10
65.9767
20
40.3457
11
65.971
21
40.3538
0
LINE
8
BLACK
6
CONTINUOUS
10
65.971
20
40.3538
11
65.9701
21
40.3571
0
LINE
8
BLACK
6
CONTINUOUS
10
65.9701
20
40.3571
11
65.9684
21
40.36
0
LINE
8
BLACK
6
CONTINUOUS
10
65.9684
20
40.36
11
65.9667
21
40.3698
0
LINE
8
BLACK
6
CONTINUOUS
10
65.9667
20
40.3698
11
65.9641
21
40.3794
0
LINE
8
BLACK
6
CONTINUOUS
10
65.9641
20
40.3794
11
65.965
21
40.3893
0
LINE
8
BLACK
6
CONTINUOUS
10
65.965
20
40.3893
11
65.965
21
51.7849
0
LINE
8
BLACK
6
CONTINUOUS
10
65.965
20
51.7849
11
64.4849
21
53.265
0
LINE
8
BLACK
6
CONTINUOUS
10
64.4849
20
53.265
11
18.109
21
53.265
  0
ENDSEC
  0
EOF
