M48
;DRILL file {KiCad 5.0.2+dfsg1-1} date Mi 03 Jul 2019 18:42:08 CEST
;FORMAT={-:-/ absolute / metric / decimal}
FMAT,2
METRIC,TZ
T1C0.800
T2C1.000
T3C1.300
T4C3.048
%
G90
G05
T1
X18.796Y28.448
X19.05Y46.482
X30.734Y36.322
X43.434Y36.322
T2
X45.72Y50.8
X48.26Y50.8
X50.8Y50.8
X53.34Y50.8
X55.88Y50.8
X58.42Y50.8
X60.96Y50.8
X63.5Y50.8
X20.574Y42.164
X23.114Y42.164
X25.654Y42.164
X28.194Y42.164
X30.734Y42.164
X33.274Y42.164
X35.814Y42.164
X38.354Y42.164
X40.894Y42.164
X43.434Y42.164
X45.974Y42.164
X48.514Y42.164
X51.054Y42.164
X53.594Y42.164
X56.134Y42.164
X58.674Y42.164
X33.02Y2.54
X35.56Y2.54
X38.1Y2.54
X40.64Y2.54
X43.18Y2.54
X45.72Y2.54
X23.877Y50.8
X26.417Y50.8
X28.957Y50.8
X31.497Y50.8
X34.037Y50.8
X36.577Y50.8
X39.117Y50.8
X41.657Y50.8
X50.8Y2.54
X53.34Y2.54
X55.88Y2.54
X58.42Y2.54
X60.96Y2.54
X63.5Y2.54
T3
X5.842Y25.146
X5.842Y20.146
X8.342Y22.646
T4
X66.04Y7.62
X66.04Y35.56
T0
M30
